<?xml version="1.0" encoding="UTF-8" standalone="no"?>
<!DOCTYPE svg PUBLIC "-//W3C//DTD SVG 1.1//EN" "http://www.w3.org/Graphics/SVG/1.1/DTD/svg11.dtd">
<svg xmlns="http://www.w3.org/2000/svg" version="1.1" viewBox="0 0 512 512" width="512.0pt" height="512.0pt">
<path d="M 0.00 0.00 L 512.00 0.00 L 512.00 512.00 L 0.00 512.00 L 0.00 0.00 Z" fill="#fdfdfd" />
<path d="M 77.42 57.56 C 106.83 57.35 136.50 57.65 166.00 57.37 C 254.18 57.31 342.36 57.38 430.55 57.35 C 430.53 61.11 430.51 64.88 430.51 68.64 C 421.49 68.70 412.48 68.66 403.46 68.67 C 403.51 77.78 403.53 86.89 403.41 96.00 C 403.14 138.52 403.64 181.03 403.48 223.55 C 360.89 223.81 318.30 223.55 275.71 223.72 C 275.05 221.83 274.38 220.04 274.48 218.00 C 274.80 168.26 274.59 118.48 274.69 68.73 C 237.13 68.68 199.56 68.73 162.00 68.66 C 133.78 68.41 105.55 68.54 77.33 68.50 C 77.35 64.86 77.17 61.19 77.42 57.56 Z" fill="#272526" />
<path d="M 392.35 68.39 C 392.04 82.27 392.63 96.16 391.76 110.00 C 391.71 144.21 391.72 178.46 391.68 212.68 C 376.02 212.69 360.36 212.68 344.70 212.72 C 344.82 201.49 344.35 190.19 345.24 179.00 C 345.47 142.15 345.20 105.24 345.40 68.38 C 361.05 68.29 376.70 68.30 392.35 68.39 Z" fill="#fdfdfd" />
<path d="M 285.67 68.69 C 301.68 68.70 317.69 68.63 333.70 68.69 C 333.63 86.45 333.79 104.21 333.38 121.97 C 333.21 152.22 333.46 182.47 333.23 212.72 C 317.38 212.66 301.52 212.53 285.66 212.43 C 285.69 164.52 285.68 116.60 285.67 68.69 Z" fill="#7ecabe" />
<path d="M 118.00 133.63 C 126.65 133.78 135.32 133.49 143.95 133.82 C 148.72 134.38 153.69 133.97 157.15 137.88 C 160.67 141.31 161.93 145.68 162.59 150.42 C 163.32 150.46 164.05 150.51 164.78 150.55 C 167.77 152.56 171.50 154.38 173.80 157.19 C 177.62 163.03 176.54 168.93 176.67 175.53 C 162.88 175.62 149.09 175.70 135.30 175.68 C 134.29 169.73 133.65 162.64 137.46 157.51 C 140.14 152.89 144.94 151.82 149.66 150.27 C 149.29 148.62 148.91 146.97 148.53 145.31 C 136.85 145.38 125.16 145.30 113.48 145.34 C 112.45 146.15 111.42 146.95 110.39 147.76 C 110.23 160.00 110.35 172.26 110.30 184.50 C 117.41 184.47 124.52 184.50 131.63 184.51 C 131.62 195.46 131.81 206.42 131.59 217.37 C 124.29 217.43 116.98 217.46 109.68 217.47 C 109.67 230.52 109.67 243.56 109.66 256.61 C 148.10 256.73 186.56 256.64 225.00 256.82 C 228.34 256.89 231.66 257.24 235.00 257.23 C 300.11 257.47 365.22 257.20 430.33 257.44 C 430.33 269.10 430.32 280.77 430.33 292.43 C 425.77 292.48 421.21 292.49 416.65 292.42 C 416.71 304.62 416.65 316.81 416.68 329.00 C 416.90 347.43 410.43 365.56 398.98 379.96 C 391.79 388.13 383.15 395.37 373.35 400.19 C 368.81 402.20 364.09 403.74 359.56 405.76 C 359.62 414.30 359.68 422.84 359.66 431.37 C 351.31 431.34 342.95 431.30 334.60 431.41 C 330.98 428.03 327.71 424.28 324.14 420.85 C 319.31 416.04 314.34 411.46 309.82 406.35 C 275.88 406.34 241.94 406.29 208.00 406.45 C 205.59 406.52 202.95 406.22 200.60 406.77 C 196.53 408.55 193.84 412.60 190.63 415.62 C 185.28 420.68 180.83 426.47 175.35 431.39 C 166.46 431.27 157.56 431.36 148.67 431.34 C 148.92 423.53 148.31 415.77 149.19 408.03 C 149.35 406.49 148.49 405.45 147.05 405.01 C 137.88 401.40 127.93 397.13 120.45 390.59 C 103.30 377.07 92.83 355.85 92.40 334.02 C 92.28 320.13 92.35 306.23 92.38 292.34 C 87.38 292.32 82.37 292.31 77.37 292.33 C 77.29 280.71 77.34 269.09 77.33 257.47 C 84.44 257.49 91.54 257.42 98.64 257.40 C 98.72 244.17 98.67 230.93 98.66 217.70 C 91.63 217.33 84.55 217.54 77.50 217.48 C 77.54 206.54 77.39 195.60 77.58 184.67 C 84.49 184.63 91.41 184.70 98.33 184.63 C 98.30 173.07 98.33 161.52 98.32 149.95 C 98.10 145.45 100.62 140.97 103.73 137.89 C 107.75 134.92 113.02 133.41 118.00 133.63 Z" fill="#272526" />
<path d="M 157.98 160.54 C 160.81 160.96 162.72 162.66 164.69 164.58 C 158.37 164.78 151.99 164.77 145.66 164.58 C 148.07 160.26 153.60 159.88 157.98 160.54 Z" fill="#fdfdfd" />
<path d="M 186.91 186.71 C 190.49 186.54 193.48 186.20 196.55 188.41 C 196.71 191.76 197.71 195.08 194.46 197.37 C 192.11 197.94 188.91 198.12 186.62 197.26 C 184.42 195.09 184.61 192.61 184.60 189.74 C 185.33 188.70 186.10 187.69 186.91 186.71 Z" fill="#272526" />
<path d="M 154.42 188.54 C 160.48 185.81 168.53 191.14 168.38 197.91 C 169.03 204.04 164.67 210.87 157.99 210.51 C 150.47 210.56 144.61 202.45 147.46 195.43 C 148.42 191.89 151.21 189.91 154.42 188.54 Z" fill="#272526" />
<path d="M 88.70 194.74 C 91.97 194.71 95.30 194.59 98.56 194.91 C 98.81 198.82 98.63 202.75 98.66 206.67 C 95.35 206.67 92.04 206.67 88.73 206.71 C 88.67 202.72 88.67 198.73 88.70 194.74 Z" fill="#fdfdfd" />
<path d="M 110.40 195.42 C 113.81 195.16 117.25 195.32 120.66 195.31 C 120.67 199.08 120.68 202.86 120.64 206.63 C 117.20 206.71 113.75 206.72 110.31 206.71 C 110.33 202.95 110.14 199.16 110.40 195.42 Z" fill="#fdfdfd" />
<path d="M 187.59 218.70 C 189.89 218.09 193.53 217.66 195.19 219.82 C 197.31 221.72 196.45 224.71 196.43 227.21 C 193.50 229.68 190.04 231.04 186.80 228.18 C 183.58 225.38 184.37 221.07 187.59 218.70 Z" fill="#272526" />
<path d="M 165.54 222.52 C 167.87 224.59 168.40 227.20 169.40 230.01 C 168.74 234.48 167.94 238.33 163.88 240.92 C 159.74 242.51 155.40 243.15 151.58 240.37 C 148.40 238.20 147.67 234.44 146.49 231.02 C 147.63 227.83 147.99 224.00 150.90 221.90 C 155.13 218.27 161.58 218.74 165.54 222.52 Z" fill="#272526" />
<path d="M 123.46 229.60 C 126.28 229.26 130.85 228.50 132.10 231.91 C 133.03 234.26 132.81 237.74 132.11 240.14 C 130.24 243.56 126.04 243.03 122.86 242.25 C 120.27 240.19 120.80 236.48 120.50 233.55 C 121.41 232.21 122.30 230.74 123.46 229.60 Z" fill="#272526" />
<path d="M 127.07 234.19 L 127.94 234.20 L 128.36 234.89 L 127.91 235.58 L 127.05 235.57 L 126.62 234.87 L 127.07 234.19 Z" fill="#7ecabe" />
<path d="M 336.00 267.36 C 363.55 267.34 391.10 267.35 418.65 267.34 C 418.66 272.10 418.67 276.86 418.67 281.62 C 379.02 281.73 339.36 281.63 299.71 281.66 C 299.70 285.28 299.68 288.90 299.61 292.53 C 334.94 292.65 370.29 292.57 405.63 292.50 C 405.76 304.00 405.48 315.50 405.49 327.00 C 405.63 341.38 402.16 356.73 393.38 368.38 C 386.27 378.79 376.06 386.78 364.50 391.67 C 355.76 395.46 346.35 395.44 337.00 395.32 C 278.68 395.32 220.34 395.54 162.00 395.46 C 149.35 395.10 138.57 389.76 128.44 382.60 C 122.08 377.64 116.71 371.52 112.34 364.75 C 110.18 360.71 108.35 356.34 106.73 352.05 C 103.60 343.10 104.46 334.78 104.00 325.48 C 103.69 320.63 104.35 315.85 104.28 311.00 C 104.19 304.76 104.34 298.53 104.19 292.30 C 163.29 292.33 222.39 292.23 281.49 292.36 C 281.54 288.69 281.55 285.03 281.55 281.36 C 250.36 281.31 219.18 281.33 188.00 281.30 C 181.63 281.50 175.37 280.42 169.00 280.66 C 141.86 280.60 114.71 280.77 87.57 280.60 C 87.60 276.23 87.58 271.87 87.55 267.50 C 170.33 266.96 253.21 268.36 336.00 267.36 Z" fill="#b6b9bc" />
<path d="M 159.30 406.73 C 167.45 406.72 175.61 406.60 183.76 406.78 C 179.15 411.49 174.21 415.88 169.74 420.71 C 166.25 420.79 162.76 420.79 159.28 420.78 C 159.27 416.09 159.27 411.41 159.30 406.73 Z" fill="#fed65a" />
<path d="M 326.12 406.51 C 333.86 406.53 341.59 406.49 349.33 406.50 C 349.33 411.12 349.32 415.75 349.31 420.37 C 346.17 420.37 342.95 420.58 339.83 420.20 C 338.10 419.56 336.67 417.88 335.42 416.58 C 333.07 413.95 330.62 411.41 328.22 408.82 C 327.52 408.05 326.82 407.28 326.12 406.51 Z" fill="#fed65a" />
</svg>