<?xml version="1.0" encoding="UTF-8" standalone="no"?>
<!DOCTYPE svg PUBLIC "-//W3C//DTD SVG 1.1//EN" "http://www.w3.org/Graphics/SVG/1.1/DTD/svg11.dtd">
<svg xmlns="http://www.w3.org/2000/svg" version="1.1" viewBox="0 0 512 512" width="512.0pt" height="512.0pt">
<path d="M 0.00 0.00 L 512.00 0.00 L 512.00 512.00 L 0.00 512.00 L 0.00 0.00 Z" fill="#fdfdfd" />
<path d="M 258.22 112.13 C 270.40 122.70 283.14 132.59 295.29 143.20 C 295.45 159.67 295.22 176.15 295.38 192.63 C 304.14 192.70 312.91 192.66 321.67 192.65 C 321.71 176.66 321.80 160.67 321.62 144.69 C 330.26 134.33 342.70 126.78 352.58 117.58 C 355.72 114.49 360.60 112.36 364.92 114.02 C 368.29 116.22 371.22 119.11 374.37 121.62 C 382.76 128.89 392.01 135.30 399.54 143.24 C 399.46 159.78 399.53 176.32 399.59 192.86 C 403.37 192.41 409.54 191.22 412.15 194.85 C 414.57 197.80 413.89 201.12 411.67 203.92 C 407.94 204.97 404.32 204.65 400.51 204.46 C 400.11 214.77 400.40 225.13 400.35 235.46 C 404.18 235.37 407.93 235.47 411.68 236.34 C 412.29 237.17 412.92 238.00 413.54 238.83 C 413.36 241.25 414.01 243.32 412.26 245.28 C 408.62 248.80 404.15 248.46 399.46 248.22 C 399.63 273.24 399.41 298.25 399.60 323.27 C 402.84 323.38 406.25 323.15 409.44 323.75 C 413.20 325.59 413.53 328.46 413.48 332.33 C 412.88 332.98 412.27 333.62 411.65 334.26 C 408.10 335.58 404.54 335.44 400.82 335.34 C 400.50 345.64 400.75 355.96 400.74 366.26 C 404.69 366.32 408.21 365.78 411.76 367.94 C 414.38 370.56 414.17 374.93 411.17 377.14 C 408.54 379.55 403.71 378.48 400.37 378.66 C 399.33 387.32 401.34 396.28 399.12 404.45 C 397.31 407.84 393.75 409.34 390.01 409.31 C 371.33 409.18 352.68 409.21 334.00 409.31 C 332.44 409.25 330.64 409.44 329.17 408.87 C 324.97 407.36 322.49 402.25 322.65 398.00 C 322.66 391.79 322.70 385.57 322.66 379.36 C 313.22 379.36 303.79 379.32 294.35 379.35 C 294.30 387.52 294.38 395.69 294.30 403.86 C 292.94 405.31 291.64 406.92 290.07 408.14 C 287.21 408.97 283.95 408.65 281.00 408.70 C 263.33 408.68 245.67 408.64 228.00 408.70 C 225.71 408.64 223.64 408.77 221.74 407.25 C 218.81 405.48 218.46 402.16 218.37 399.04 C 218.39 392.14 218.40 385.24 218.44 378.34 C 209.08 378.32 199.71 378.25 190.35 378.36 C 190.24 385.94 190.47 393.53 190.32 401.11 C 190.38 404.49 187.52 407.64 184.26 408.23 C 181.87 408.49 179.41 408.42 177.00 408.44 C 157.61 408.40 138.21 408.67 118.81 408.44 C 116.86 406.56 114.27 405.08 114.38 402.02 C 114.26 394.11 114.38 386.19 114.34 378.28 C 111.27 378.29 108.12 378.53 105.07 378.16 C 102.18 377.51 101.71 375.32 100.55 372.98 C 101.26 370.83 101.88 368.66 102.37 366.45 C 106.41 366.40 110.44 366.42 114.48 366.43 C 114.49 356.13 114.68 345.81 114.41 335.52 C 110.20 335.29 106.02 335.26 101.81 335.39 C 101.10 331.30 101.05 327.47 102.86 323.64 C 106.41 322.39 109.96 322.61 113.66 322.65 C 113.77 297.92 113.72 273.19 113.69 248.46 C 110.74 248.66 107.85 248.65 104.91 248.32 C 103.76 247.06 102.59 245.80 101.42 244.56 C 101.24 241.44 101.27 238.40 101.89 235.32 C 105.83 235.42 109.76 235.34 113.69 235.19 C 113.52 224.95 113.66 214.71 113.50 204.47 C 110.03 204.49 106.55 204.55 103.08 204.39 L 102.20 203.17 C 101.06 200.41 100.99 197.45 101.58 194.56 C 104.52 191.28 109.86 192.51 113.75 192.55 C 114.57 187.67 114.14 182.91 114.24 178.00 C 114.32 167.00 114.21 155.98 114.35 144.98 C 114.11 141.17 118.90 138.60 121.45 136.47 C 130.18 129.16 138.83 121.86 147.71 114.72 C 149.52 112.91 152.81 113.70 155.19 113.51 C 166.45 121.90 176.65 131.72 187.86 140.14 C 190.18 142.32 190.70 145.00 191.52 147.95 C 190.86 149.99 190.56 151.86 190.63 154.00 C 190.75 166.42 190.60 178.83 190.73 191.25 C 199.93 191.43 209.13 191.34 218.33 191.34 C 218.37 176.54 218.62 161.76 218.49 146.97 C 218.23 143.80 219.78 141.15 222.21 139.25 C 230.49 132.93 238.09 125.69 246.47 119.47 C 250.56 116.37 252.43 112.17 258.22 112.13 Z" fill="#4d3f32" />
<path d="M 152.21 126.97 C 159.25 132.48 165.78 138.65 172.79 144.21 C 174.71 146.10 178.06 147.91 177.71 150.97 C 177.75 159.67 177.67 168.31 178.22 177.00 C 178.39 222.33 178.34 267.67 178.29 313.00 C 178.23 317.35 177.65 321.65 177.70 326.00 C 177.75 349.51 177.63 373.02 177.48 396.53 C 160.43 396.53 143.38 396.55 126.33 396.45 C 126.31 337.63 126.61 278.82 126.48 220.00 C 126.28 196.09 126.39 172.17 126.34 148.26 C 129.28 146.24 132.22 144.26 134.93 141.92 C 140.69 136.91 146.78 132.35 152.21 126.97 Z" fill="#f9a861" />
<path d="M 361.19 127.16 C 369.35 133.86 377.36 140.81 385.54 147.49 C 387.34 148.76 386.69 151.09 386.86 153.00 C 386.69 160.02 386.96 166.99 387.23 174.00 C 387.30 236.33 387.18 298.67 387.59 361.00 C 387.44 372.80 387.74 384.62 387.46 396.42 C 370.09 396.05 352.71 396.44 335.34 396.14 C 335.36 391.76 335.31 387.38 335.24 383.00 C 335.46 305.74 335.31 228.26 335.35 150.98 C 335.16 148.92 336.52 148.10 337.82 146.80 C 345.52 140.15 353.30 133.59 361.19 127.16 Z" fill="#d57766" />
<path d="M 259.22 129.72 C 259.39 153.14 259.27 176.58 259.31 200.00 C 259.50 207.94 258.81 215.83 258.63 223.77 C 257.53 224.07 256.42 224.34 255.33 224.69 C 253.05 225.67 251.09 226.59 250.30 229.12 C 248.94 232.02 250.13 235.61 252.07 237.95 C 254.29 240.07 256.71 239.60 259.54 239.77 C 259.74 278.61 259.67 317.43 259.82 356.27 C 257.82 356.35 255.68 356.19 253.73 356.66 C 251.70 358.04 249.79 360.42 249.61 362.94 C 249.21 365.91 251.17 368.87 253.43 370.61 C 255.06 371.91 257.52 371.41 259.45 371.34 C 260.04 379.72 259.36 388.10 259.92 396.49 C 250.08 396.77 240.21 396.65 230.36 396.62 C 230.23 369.75 230.34 342.87 230.61 316.00 C 230.66 287.68 230.62 259.31 230.74 231.00 C 231.58 221.00 231.16 211.02 231.28 201.00 C 231.25 185.00 231.38 168.99 231.27 152.99 C 231.33 151.63 231.19 150.07 231.66 148.78 C 233.95 145.81 237.28 143.57 240.02 141.01 C 244.50 136.76 249.54 133.23 254.15 129.11 C 255.76 127.58 257.86 128.20 259.22 129.72 Z" fill="#f9a861" />
<path d="M 259.22 129.72 C 266.44 135.87 273.97 141.72 281.35 147.68 C 282.24 148.34 282.69 149.14 282.71 150.06 C 283.48 167.04 283.16 184.00 283.25 201.00 C 283.39 208.68 282.55 216.32 282.70 224.00 C 282.67 281.40 282.39 338.80 282.27 396.20 C 274.82 396.70 267.38 396.15 259.92 396.49 C 259.36 388.10 260.04 379.72 259.45 371.34 C 262.30 369.04 263.57 366.51 264.69 363.09 C 263.40 360.31 262.04 358.36 259.82 356.27 C 259.67 317.43 259.74 278.61 259.54 239.77 C 260.87 238.43 262.38 237.11 263.44 235.53 C 264.13 232.64 264.27 228.42 261.60 226.42 C 259.77 224.76 257.64 224.85 255.33 224.69 C 256.42 224.34 257.53 224.07 258.63 223.77 C 258.81 215.83 259.50 207.94 259.31 200.00 C 259.27 176.58 259.39 153.14 259.22 129.72 Z" fill="#d57766" />
<path d="M 102.20 203.17 L 103.08 204.39 C 106.55 204.55 110.03 204.49 113.50 204.47 C 113.66 214.71 113.52 224.95 113.69 235.19 C 109.76 235.34 105.83 235.42 101.89 235.32 C 102.67 230.31 102.15 225.08 102.30 220.00 C 102.22 214.40 102.51 208.76 102.20 203.17 Z" fill="#f9a861" />
<path d="M 411.67 203.92 C 411.50 214.72 411.75 225.54 411.68 236.34 C 407.93 235.47 404.18 235.37 400.35 235.46 C 400.40 225.13 400.11 214.77 400.51 204.46 C 404.32 204.65 407.94 204.97 411.67 203.92 Z" fill="#d57766" />
<path d="M 191.48 205.43 C 200.53 205.19 209.61 205.39 218.66 205.32 C 218.60 215.06 218.81 224.80 218.57 234.52 C 209.51 234.44 200.45 234.50 191.40 234.56 C 191.32 224.86 191.29 215.12 191.48 205.43 Z" fill="#f9a861" />
<path d="M 295.48 204.49 C 304.56 204.79 313.66 204.35 322.74 204.75 C 322.59 214.72 322.70 224.68 322.66 234.65 C 313.57 234.59 304.48 234.59 295.40 234.53 C 295.37 224.52 295.22 214.50 295.48 204.49 Z" fill="#d57766" />
<path d="M 149.32 225.41 C 151.63 224.49 154.66 224.80 156.61 226.39 C 158.92 228.17 159.05 231.98 158.52 234.58 C 156.49 239.73 148.30 240.12 146.01 234.92 C 144.85 232.04 146.09 226.53 149.32 225.41 Z" fill="#4d3f32" />
<path d="M 255.33 224.69 C 257.64 224.85 259.77 224.76 261.60 226.42 C 264.27 228.42 264.13 232.64 263.44 235.53 C 262.38 237.11 260.87 238.43 259.54 239.77 C 256.71 239.60 254.29 240.07 252.07 237.95 C 250.13 235.61 248.94 232.02 250.30 229.12 C 251.09 226.59 253.05 225.67 255.33 224.69 Z" fill="#4d3f32" />
<path d="M 358.19 225.14 C 360.14 224.01 362.94 224.10 365.04 224.76 C 367.50 226.26 369.10 229.17 369.36 232.00 C 368.70 235.37 366.47 238.51 363.06 239.48 C 360.71 240.26 358.30 238.99 356.54 237.50 C 352.83 234.39 354.13 227.41 358.19 225.14 Z" fill="#4d3f32" />
<path d="M 191.41 248.41 C 200.15 248.15 208.93 248.43 217.68 248.28 C 217.66 266.19 217.74 284.10 217.56 302.00 C 217.57 308.88 217.29 315.83 217.80 322.67 C 208.97 322.63 200.15 322.67 191.33 322.66 C 191.39 297.98 191.14 273.04 191.41 248.41 Z" fill="#fdfdfd" />
<path d="M 295.37 247.65 C 304.35 247.65 313.33 247.66 322.30 247.68 C 322.38 272.69 322.30 297.69 322.31 322.69 C 313.30 322.68 304.28 322.67 295.27 322.72 C 295.36 297.69 295.33 272.67 295.37 247.65 Z" fill="#fdfdfd" />
<path d="M 411.65 334.26 C 411.75 345.52 412.31 356.66 411.76 367.94 C 408.21 365.78 404.69 366.32 400.74 366.26 C 400.75 355.96 400.50 345.64 400.82 335.34 C 404.54 335.44 408.10 335.58 411.65 334.26 Z" fill="#d57766" />
<path d="M 101.81 335.39 C 106.02 335.26 110.20 335.29 114.41 335.52 C 114.68 345.81 114.49 356.13 114.48 366.43 C 110.44 366.42 106.41 366.40 102.37 366.45 C 102.26 358.30 102.33 350.15 102.39 342.00 C 102.40 339.78 102.16 337.58 101.81 335.39 Z" fill="#f9a861" />
<path d="M 190.65 335.65 C 199.53 335.59 208.42 335.64 217.30 335.64 C 219.24 345.63 217.97 356.22 218.34 366.39 C 209.11 366.30 199.88 366.39 190.65 366.37 C 190.64 356.13 190.66 345.89 190.65 335.65 Z" fill="#f9a861" />
<path d="M 295.30 335.79 C 304.31 335.59 313.34 335.71 322.35 335.73 C 322.55 345.88 322.50 356.06 322.40 366.21 C 313.38 366.26 304.35 366.33 295.32 366.19 C 295.32 356.06 295.35 345.92 295.30 335.79 Z" fill="#d57766" />
<path d="M 149.47 356.59 C 152.41 355.94 155.36 356.09 157.36 358.61 C 160.87 361.95 159.78 368.18 155.52 370.35 C 152.05 372.36 148.30 370.98 145.94 368.05 C 143.05 364.05 144.88 358.30 149.47 356.59 Z" fill="#4d3f32" />
<path d="M 259.82 356.27 C 262.04 358.36 263.40 360.31 264.69 363.09 C 263.57 366.51 262.30 369.04 259.45 371.34 C 257.52 371.41 255.06 371.91 253.43 370.61 C 251.17 368.87 249.21 365.91 249.61 362.94 C 249.79 360.42 251.70 358.04 253.73 356.66 C 255.68 356.19 257.82 356.35 259.82 356.27 Z" fill="#4d3f32" />
<path d="M 357.33 357.31 C 359.92 356.03 363.90 355.75 366.16 357.86 C 370.01 361.12 369.89 368.68 364.60 370.52 C 361.45 370.95 357.59 371.44 355.54 368.43 C 352.57 364.61 353.26 359.92 357.33 357.31 Z" fill="#4d3f32" />
</svg>