<?xml version="1.0" encoding="UTF-8" standalone="no"?>
<!DOCTYPE svg PUBLIC "-//W3C//DTD SVG 1.1//EN" "http://www.w3.org/Graphics/SVG/1.1/DTD/svg11.dtd">
<svg xmlns="http://www.w3.org/2000/svg" version="1.1" viewBox="0 0 512 512" width="512.0pt" height="512.0pt">
<path d="M 0.00 0.00 L 512.00 0.00 L 512.00 512.00 L 0.00 512.00 L 0.00 0.00 Z" fill="#fdfdfc" />
<path d="M 129.02 89.23 C 134.42 87.82 141.12 89.98 144.86 94.10 C 149.19 99.58 149.93 106.75 154.86 112.14 C 159.44 117.48 166.10 119.71 173.01 118.32 C 175.59 117.06 177.57 114.51 180.21 113.45 C 182.42 113.00 185.51 112.95 186.83 115.17 C 188.79 118.44 187.41 122.28 184.41 124.36 C 179.74 127.62 173.79 129.99 168.01 129.58 C 158.56 129.54 149.69 124.28 144.31 116.65 C 141.34 112.37 139.70 107.19 137.37 102.76 C 136.74 101.66 136.15 100.44 135.05 99.74 C 132.98 99.14 130.63 99.30 129.26 101.15 C 125.65 105.43 124.53 111.60 121.27 116.24 C 116.68 122.95 109.10 128.08 101.05 129.42 C 93.69 130.58 86.11 128.29 80.44 123.54 C 78.81 122.07 77.35 120.57 77.29 118.23 C 77.38 115.08 81.08 112.63 83.98 112.69 C 87.20 114.43 89.24 117.10 92.95 118.04 C 98.57 119.52 105.10 117.05 109.51 113.52 C 114.02 110.07 114.75 104.19 117.40 99.42 C 119.68 94.94 123.80 90.07 129.02 89.23 Z" fill="#482d4b" />
<path d="M 388.25 92.64 C 390.07 98.14 389.01 103.35 389.38 108.96 C 389.47 110.65 390.31 112.28 391.49 113.46 C 395.98 117.41 402.22 119.43 408.16 118.25 C 413.91 117.27 418.39 113.03 420.01 107.45 C 421.96 107.20 423.88 106.12 425.61 107.43 C 428.50 109.06 429.52 112.97 427.94 115.86 C 423.18 124.46 413.83 129.80 404.00 129.53 C 396.74 129.63 390.07 125.83 384.05 122.17 C 379.24 125.39 374.64 128.57 368.79 129.50 C 363.74 130.17 358.61 129.99 353.83 128.10 C 347.55 125.82 342.43 120.52 339.18 114.79 C 336.63 111.01 342.73 104.51 346.54 107.55 C 349.88 110.24 351.19 114.50 355.33 116.70 C 360.16 119.59 365.78 119.05 370.81 117.03 C 373.84 115.74 377.14 113.69 378.41 110.50 C 379.48 105.32 377.70 99.20 379.33 94.21 C 381.63 90.48 384.77 92.03 388.25 92.64 Z" fill="#482d4b" />
<path d="M 261.03 98.60 C 266.47 100.16 271.15 103.96 276.16 106.84 C 297.13 120.18 317.94 133.80 338.99 147.01 C 370.62 167.33 402.63 187.17 434.23 207.65 C 449.32 216.89 463.94 226.69 478.92 236.07 C 481.87 237.90 482.31 240.75 482.33 243.99 C 482.27 251.38 482.44 258.79 482.25 266.18 C 482.24 269.28 480.21 271.73 477.03 271.72 C 474.72 271.44 472.56 269.58 470.66 268.34 C 460.48 261.04 449.73 254.49 438.82 248.36 C 438.82 260.24 438.89 272.12 439.12 284.00 C 439.07 329.32 439.26 374.63 439.28 419.95 C 449.62 424.08 458.10 431.51 464.48 440.55 C 466.16 442.62 466.07 446.32 464.41 448.36 C 462.64 449.92 460.19 449.59 458.01 449.69 C 356.33 448.85 254.68 449.87 153.00 449.63 C 124.32 449.71 95.65 449.47 66.97 449.54 C 64.07 449.51 60.95 449.57 59.21 446.79 C 57.90 444.69 58.56 442.68 59.80 440.77 C 65.89 431.47 74.76 424.22 85.35 420.67 C 85.33 363.11 85.45 305.54 85.18 247.99 C 76.32 252.65 68.45 258.63 59.93 263.90 C 55.69 266.44 51.63 269.78 47.02 271.57 C 45.48 271.48 43.91 271.00 42.41 270.63 C 41.27 263.23 41.99 255.49 41.78 248.00 C 41.88 244.93 41.39 241.47 42.26 238.51 C 45.04 235.54 49.00 233.51 52.40 231.31 C 82.80 211.46 113.76 192.05 144.25 172.32 C 160.07 162.97 175.03 152.15 190.97 143.00 C 206.22 132.78 221.80 123.13 237.28 113.28 C 245.16 108.36 252.87 103.05 261.03 98.60 Z" fill="#482d4b" />
<path d="M 262.20 110.67 C 278.31 120.87 293.77 132.09 310.20 141.83 C 334.21 157.03 358.36 172.44 382.38 187.62 C 397.03 196.98 411.59 206.47 426.32 215.70 C 441.11 225.73 456.51 234.74 471.52 244.40 C 471.47 248.22 471.40 252.05 471.30 255.87 C 463.01 250.36 455.06 244.57 446.46 239.53 C 430.42 230.05 415.07 219.57 399.24 209.74 C 377.15 195.44 354.84 181.50 332.66 167.34 C 322.45 160.95 312.54 154.05 302.27 147.77 C 294.78 143.30 287.40 138.64 280.07 133.92 C 274.20 129.97 268.38 125.96 262.31 122.32 C 245.13 132.66 228.31 143.57 211.53 154.53 C 190.12 168.55 168.14 181.69 146.76 195.75 C 126.19 208.38 106.34 222.24 85.53 234.51 C 74.45 241.52 63.15 248.13 52.22 255.38 C 52.21 251.71 52.25 248.04 52.31 244.36 C 66.22 235.59 80.23 226.98 94.08 218.12 C 104.80 211.62 115.00 204.35 125.59 197.64 C 137.47 190.25 149.11 182.34 161.11 175.12 C 190.28 157.08 218.86 138.10 247.97 119.96 C 252.82 117.02 257.32 113.55 262.20 110.67 Z" fill="#815416" />
<path d="M 262.40 135.64 C 271.10 140.78 279.31 146.88 287.96 152.03 C 302.99 161.24 317.60 171.11 332.57 180.42 C 333.65 181.20 335.11 181.98 335.78 183.16 C 336.14 184.72 336.15 186.40 336.19 188.00 C 336.12 204.58 336.15 221.17 336.20 237.75 C 323.49 237.77 310.78 237.76 298.08 237.83 C 298.13 230.28 298.60 223.27 297.03 215.79 C 294.96 206.02 288.51 197.24 280.08 191.96 C 268.20 184.06 251.14 185.36 239.90 193.85 C 231.65 199.81 226.49 209.33 224.80 219.26 C 224.11 225.31 224.55 231.51 224.41 237.59 C 212.02 237.58 199.64 237.62 187.25 237.60 C 187.39 219.32 187.21 201.03 187.31 182.74 C 199.04 175.36 210.74 167.91 222.35 160.33 C 234.52 152.49 246.83 144.87 258.83 136.78 C 259.73 136.38 261.46 134.83 262.40 135.64 Z" fill="#00e8e1" />
<path d="M 176.54 189.23 C 176.23 205.39 176.53 221.57 176.41 237.73 C 154.94 237.75 133.47 237.80 112.00 237.87 C 108.99 237.87 105.98 237.77 102.97 237.59 C 108.58 232.88 115.08 229.35 121.11 225.13 C 127.71 221.12 133.85 216.46 140.47 212.48 C 152.58 204.85 164.51 196.98 176.54 189.23 Z" fill="#00e8e1" />
<path d="M 346.60 189.62 C 352.27 192.82 357.74 196.32 363.24 199.81 C 372.34 205.69 381.59 211.34 390.56 217.44 C 400.69 224.41 411.39 230.28 421.44 237.36 C 416.30 237.94 411.16 237.87 406.00 237.82 C 386.15 237.90 366.29 237.93 346.44 237.83 C 346.39 221.76 346.32 205.69 346.60 189.62 Z" fill="#00e8e1" />
<path d="M 260.98 196.76 C 271.25 196.65 281.13 203.64 284.93 213.10 C 288.41 220.56 287.06 229.57 287.28 237.73 C 269.75 237.81 252.23 237.72 234.70 237.57 C 234.83 229.84 233.70 221.95 236.72 214.69 C 240.44 204.63 250.21 197.24 260.98 196.76 Z" fill="#e6ce46" />
<path d="M 336.15 247.45 C 336.33 265.04 336.16 282.64 336.25 300.23 C 313.24 300.21 290.22 300.20 267.21 300.28 C 267.19 282.71 267.19 265.13 267.26 247.56 C 290.22 247.54 313.18 247.24 336.15 247.45 Z" fill="#00e3c4" />
<path d="M 96.40 248.43 C 108.56 247.87 120.82 248.74 132.99 247.84 C 147.54 247.64 162.11 247.79 176.67 247.75 C 176.79 265.00 176.64 282.25 176.64 299.49 C 149.86 299.57 123.09 299.36 96.32 299.27 C 96.46 282.35 96.03 265.32 96.40 248.43 Z" fill="#cecfcd" />
<path d="M 187.25 247.65 C 210.28 247.64 233.32 247.63 256.36 247.59 C 256.42 265.12 256.25 282.66 256.27 300.20 C 240.18 300.19 224.09 300.27 208.00 300.14 C 201.07 299.92 194.15 299.74 187.21 299.81 C 187.26 282.43 187.23 265.04 187.25 247.65 Z" fill="#cecfcd" />
<path d="M 346.82 248.32 C 373.78 248.30 400.75 248.34 427.72 248.29 C 427.69 265.27 427.70 282.25 427.70 299.23 C 400.76 299.30 373.82 299.20 346.88 299.33 C 346.84 282.33 346.80 265.33 346.82 248.32 Z" fill="#cecfcd" />
<path d="M 95.79 310.74 C 122.77 310.67 149.75 310.74 176.74 310.64 C 176.72 328.02 176.63 345.39 176.53 362.76 C 149.63 362.76 122.73 362.79 95.83 362.66 C 95.79 345.36 95.92 328.05 95.79 310.74 Z" fill="#cecfcd" />
<path d="M 186.87 310.79 C 209.99 310.78 233.11 310.74 256.23 310.77 C 256.22 337.24 256.26 363.72 256.34 390.20 C 251.08 391.04 246.11 391.80 241.33 394.30 C 234.97 397.32 230.30 402.07 226.44 407.86 C 222.19 405.19 218.04 402.82 213.01 401.98 C 203.92 400.65 194.58 401.95 186.68 406.82 C 186.78 374.81 186.78 342.80 186.87 310.79 Z" fill="#e6ce46" />
<path d="M 266.75 310.79 C 289.89 310.74 313.02 310.59 336.16 310.56 C 336.09 343.66 336.32 376.76 336.17 409.87 C 332.67 407.72 329.02 405.37 325.24 403.78 C 319.79 401.51 313.81 400.94 307.97 401.45 C 302.25 402.00 297.24 404.73 292.35 407.55 C 286.51 398.40 277.43 392.62 266.79 390.67 C 266.77 364.04 266.77 337.41 266.75 310.79 Z" fill="#e6ce46" />
<path d="M 346.60 310.58 C 373.63 310.55 400.65 310.60 427.68 310.70 C 427.65 328.18 427.70 345.66 427.66 363.14 C 418.43 363.36 409.23 362.72 400.00 362.81 C 382.20 362.78 364.40 362.81 346.60 362.76 C 346.63 345.37 346.62 327.97 346.60 310.58 Z" fill="#cecfcd" />
<path d="M 96.54 373.76 C 122.96 373.76 149.39 373.82 175.81 373.66 C 175.71 386.85 175.99 400.05 175.57 413.22 C 174.39 414.46 173.21 415.70 172.05 416.94 C 164.67 413.59 157.10 411.57 148.98 413.33 C 140.37 414.74 133.95 419.97 128.61 426.56 C 125.10 424.50 121.70 422.55 117.81 421.28 C 111.04 419.01 103.60 418.64 96.52 418.65 C 96.56 403.69 96.54 388.72 96.54 373.76 Z" fill="#cecfcd" />
<path d="M 346.75 373.68 C 352.52 373.67 358.24 374.29 364.00 374.28 C 385.24 374.32 406.48 374.36 427.72 374.43 C 427.71 388.51 427.69 402.59 427.72 416.66 C 414.25 415.19 401.03 418.46 390.43 427.02 C 385.40 420.36 379.43 415.01 371.04 413.25 C 362.54 411.17 354.47 413.20 346.75 416.81 C 346.74 402.44 346.63 388.06 346.75 373.68 Z" fill="#cecfcd" />
<path d="M 262.03 400.69 C 269.60 401.26 276.34 405.08 281.27 410.75 C 284.74 414.63 285.48 419.66 289.74 423.00 C 294.84 419.34 298.84 415.02 305.05 413.23 C 314.44 410.37 324.07 413.57 331.42 419.64 C 334.57 422.45 336.71 426.42 339.76 429.28 C 341.49 431.01 344.61 430.89 346.84 430.61 C 349.51 429.97 351.83 427.60 354.14 426.16 C 358.93 422.79 365.46 421.62 370.92 424.02 C 376.91 426.82 381.07 432.00 383.28 438.16 C 356.19 438.25 329.10 438.20 302.00 438.36 C 252.32 438.17 202.67 438.86 153.00 438.28 C 147.74 438.13 142.24 438.71 137.06 437.79 C 136.76 432.12 141.96 427.92 146.50 425.55 C 153.61 421.89 161.79 423.29 168.08 427.92 C 170.37 429.33 173.10 432.27 176.00 431.16 C 179.04 429.54 181.25 426.05 183.57 423.55 C 190.09 416.25 198.89 411.24 208.97 412.45 C 215.28 412.86 219.27 416.40 224.16 419.85 C 226.30 421.32 228.36 422.59 230.85 420.89 C 234.04 418.08 235.24 413.40 238.28 410.32 C 244.27 404.05 253.20 399.63 262.03 400.69 Z" fill="#cda478" />
<path d="M 423.00 427.53 C 432.34 428.83 441.30 431.86 448.43 438.23 C 430.60 438.28 412.74 438.27 394.91 438.10 C 402.07 430.47 412.58 426.49 423.00 427.53 Z" fill="#cda478" />
<path d="M 96.02 429.79 C 106.17 428.68 116.44 430.50 124.17 437.59 C 116.69 438.64 109.51 438.09 102.00 438.17 C 93.68 438.14 85.33 438.39 77.02 438.00 C 82.31 433.25 89.13 430.97 96.02 429.79 Z" fill="#cda478" />
</svg>