<?xml version="1.0" encoding="UTF-8" standalone="no"?>
<!DOCTYPE svg PUBLIC "-//W3C//DTD SVG 1.1//EN" "http://www.w3.org/Graphics/SVG/1.1/DTD/svg11.dtd">
<svg xmlns="http://www.w3.org/2000/svg" version="1.1" viewBox="0 0 512 512" width="512.0pt" height="512.0pt">
<path d="M 0.00 0.00 L 512.00 0.00 L 512.00 512.00 L 0.00 512.00 L 0.00 0.00 Z" fill="#fdfdfd" />
<path d="M 161.96 78.29 C 223.05 78.23 283.90 78.17 345.00 78.24 C 352.46 78.32 359.96 78.00 367.40 78.52 C 369.37 83.98 368.42 89.13 368.59 95.00 C 369.02 196.34 368.41 297.66 368.78 399.00 C 368.72 401.54 368.99 404.49 368.09 406.90 C 366.45 409.61 363.89 409.70 361.03 409.71 C 320.28 409.64 279.52 409.71 238.77 409.73 C 238.78 419.49 238.72 429.25 238.76 439.01 C 238.69 440.98 238.88 443.35 237.80 445.08 C 236.29 445.93 234.76 446.58 233.00 446.18 C 226.56 444.99 221.66 441.87 215.82 439.26 C 202.34 433.71 189.28 427.15 176.03 421.06 C 167.03 416.33 156.90 412.92 148.60 407.03 C 148.68 373.02 148.66 339.01 148.77 305.00 C 148.63 299.65 149.37 294.35 149.26 289.00 C 149.35 230.56 149.46 172.12 149.62 113.67 C 152.81 111.28 156.38 109.93 160.20 108.91 C 180.55 103.63 201.16 98.31 221.28 92.24 C 227.25 90.36 232.30 87.96 238.62 90.35 C 238.94 96.61 238.86 102.94 238.73 109.22 C 269.83 109.29 300.96 109.29 332.06 109.32 C 334.88 109.21 337.04 110.32 338.00 113.07 C 338.60 116.29 338.25 119.74 338.27 123.00 C 338.21 169.67 338.49 216.34 338.25 263.00 C 338.32 296.02 337.85 329.00 338.09 362.00 C 338.30 374.45 338.21 386.90 338.29 399.34 C 345.12 399.36 351.96 399.34 358.79 399.33 C 358.55 295.46 358.59 191.57 358.44 87.69 C 317.96 87.70 277.48 87.63 237.00 87.37 C 211.43 87.94 185.86 87.66 160.28 87.78 C 155.42 86.07 156.29 77.70 161.96 78.29 Z" fill="#2f3742" />
<path d="M 160.28 87.78 C 185.86 87.66 211.43 87.94 237.00 87.37 C 277.48 87.63 317.96 87.70 358.44 87.69 C 358.59 191.57 358.55 295.46 358.79 399.33 C 351.96 399.34 345.12 399.36 338.29 399.34 C 338.21 386.90 338.30 374.45 338.09 362.00 C 337.85 329.00 338.32 296.02 338.25 263.00 C 338.49 216.34 338.21 169.67 338.27 123.00 C 338.25 119.74 338.60 116.29 338.00 113.07 C 337.04 110.32 334.88 109.21 332.06 109.32 C 300.96 109.29 269.83 109.29 238.73 109.22 C 238.86 102.94 238.94 96.61 238.62 90.35 C 232.30 87.96 227.25 90.36 221.28 92.24 C 201.16 98.31 180.55 103.63 160.20 108.91 C 160.25 101.87 160.42 94.82 160.28 87.78 Z" fill="#febf69" />
<path d="M 229.27 100.39 C 229.31 114.92 229.26 129.46 229.32 144.00 C 229.39 150.02 228.66 155.98 228.74 162.00 C 228.81 181.00 228.75 200.00 228.85 219.00 C 228.90 234.33 228.65 249.68 229.14 265.00 C 229.44 321.58 229.25 378.16 229.40 434.74 C 216.00 428.41 202.38 422.51 189.06 415.97 C 179.02 411.04 168.25 406.96 158.76 401.08 C 158.71 339.39 158.64 277.69 158.78 216.00 C 158.77 210.99 159.12 206.00 159.17 201.00 C 159.26 173.68 159.26 146.37 159.32 119.05 C 170.98 116.15 182.67 113.39 194.24 110.11 C 205.95 106.99 217.54 103.45 229.27 100.39 Z" fill="#d69265" />
<path d="M 328.64 119.39 C 328.83 169.94 328.76 220.45 328.83 270.99 C 328.50 313.75 328.91 356.53 328.74 399.29 C 298.73 398.27 268.67 399.11 238.65 398.51 C 238.67 395.24 238.69 391.97 238.72 388.71 C 259.14 388.65 279.57 388.70 300.00 388.72 C 304.33 388.69 308.71 388.96 313.03 388.61 C 315.02 388.43 316.99 387.65 317.63 385.58 C 318.65 381.93 318.21 377.77 318.27 374.00 C 318.24 340.33 318.07 306.67 318.23 273.00 C 318.15 269.19 318.75 264.98 317.77 261.28 C 316.62 258.25 313.96 257.71 311.02 257.65 C 286.87 257.66 263.00 257.60 238.82 257.70 C 238.81 254.37 238.79 251.03 238.78 247.70 C 262.19 247.68 285.62 247.63 309.03 247.70 C 312.29 247.75 315.33 247.10 317.27 244.25 C 318.26 241.74 318.10 238.66 318.18 236.00 C 318.07 224.99 318.38 214.00 317.97 202.99 C 317.60 184.65 318.08 166.34 317.81 148.00 C 317.70 143.20 318.22 138.22 317.49 133.47 C 317.16 131.55 315.69 130.52 313.88 130.13 C 310.05 129.34 305.90 129.73 302.00 129.68 C 280.89 129.69 259.79 129.51 238.68 129.39 C 238.68 126.11 238.67 122.82 238.67 119.54 C 268.66 119.41 298.65 119.40 328.64 119.39 Z" fill="#d69265" />
<path d="M 238.76 139.47 C 262.39 139.58 286.01 139.58 309.63 139.75 C 309.67 166.17 309.69 192.58 309.70 219.00 C 309.72 225.10 309.74 231.19 309.46 237.28 C 285.93 237.15 262.40 237.33 238.87 237.18 C 238.88 204.61 238.77 172.04 238.76 139.47 Z" fill="#52a4da" />
<path d="M 213.06 246.02 C 215.12 246.97 214.53 249.10 214.76 250.97 C 214.70 262.32 214.67 273.66 214.76 285.00 C 214.71 287.57 214.86 290.44 214.06 292.90 C 213.07 294.91 210.83 296.38 209.21 297.86 C 206.63 296.40 203.99 295.98 203.11 292.78 C 202.19 290.88 204.35 288.76 205.16 287.10 C 205.25 283.15 205.24 279.21 205.22 275.26 C 199.52 275.09 193.68 275.72 188.03 275.02 C 184.10 274.79 183.95 266.46 188.15 266.50 C 193.63 265.92 199.23 266.39 204.73 266.27 C 204.72 262.17 204.97 258.04 204.72 253.95 C 204.68 251.85 203.35 250.79 202.17 249.21 C 202.97 248.06 203.64 246.60 204.73 245.71 C 206.88 245.01 210.98 245.14 213.06 246.02 Z" fill="#2f3742" />
<path d="M 238.86 267.56 C 262.07 267.61 285.29 267.40 308.50 267.61 C 308.48 304.57 308.72 341.54 308.47 378.50 C 285.20 378.35 261.94 378.55 238.67 378.41 C 238.67 341.46 238.74 304.51 238.86 267.56 Z" fill="#52a4da" />
</svg>