<?xml version="1.0" encoding="UTF-8" standalone="no"?>
<!DOCTYPE svg PUBLIC "-//W3C//DTD SVG 1.1//EN" "http://www.w3.org/Graphics/SVG/1.1/DTD/svg11.dtd">
<svg xmlns="http://www.w3.org/2000/svg" version="1.1" viewBox="0 0 512 512" width="512.0pt" height="512.0pt">
<path d="M 0.00 0.00 L 512.00 0.00 L 512.00 512.00 L 0.00 512.00 L 0.00 0.00 Z" fill="#f8f9f8" />
<path d="M 99.61 135.61 C 101.77 134.51 104.61 134.85 107.00 134.78 C 124.33 135.01 141.69 134.53 159.00 135.19 C 199.33 135.22 239.67 135.38 280.00 135.25 C 285.35 135.32 290.65 134.71 296.00 134.75 C 333.00 134.72 370.00 134.70 407.00 134.69 C 411.23 134.59 415.42 134.61 419.61 135.26 C 420.58 140.48 420.54 145.39 419.85 150.64 C 418.02 150.64 416.18 150.63 414.34 150.62 C 414.33 190.74 414.22 230.87 414.31 271.00 C 414.57 276.71 414.02 282.32 413.75 288.01 C 413.79 312.35 413.70 336.66 413.67 361.00 C 413.66 366.18 413.85 371.30 413.27 376.46 C 399.19 376.70 385.08 376.35 371.00 376.30 C 358.65 376.42 346.35 375.59 334.00 375.78 C 298.00 375.76 262.00 375.76 226.00 375.68 C 195.01 375.41 163.99 375.14 133.00 375.64 C 124.36 375.62 115.69 375.99 107.06 375.70 C 105.98 375.80 105.24 375.33 104.83 374.29 C 104.45 370.23 104.79 366.08 104.73 362.00 C 104.68 337.33 104.81 312.67 104.76 288.00 C 104.54 242.16 104.81 196.33 104.67 150.48 C 102.94 150.48 101.21 150.48 99.47 150.47 C 99.55 145.53 99.19 140.53 99.61 135.61 Z" fill="#213f46" />
<path d="M 102.52 138.47 C 103.99 138.26 105.50 138.29 106.98 138.27 C 122.65 138.43 138.34 138.50 154.00 138.76 C 166.36 139.87 178.62 139.39 191.00 139.62 C 201.67 139.77 212.33 139.64 223.00 139.55 C 266.66 139.85 310.34 139.26 354.00 139.47 C 374.85 139.34 395.70 139.35 416.54 139.30 C 416.55 141.68 416.56 144.06 416.57 146.43 C 396.04 146.49 375.52 146.55 355.00 146.38 C 307.67 146.40 260.33 146.71 213.00 146.52 C 176.11 146.46 139.23 146.65 102.35 146.48 C 102.34 143.82 102.24 141.12 102.52 138.47 Z" fill="#f39e00" />
<path d="M 108.48 150.47 C 147.03 150.06 186.41 150.47 225.00 150.65 C 286.76 150.88 348.52 150.51 410.29 150.71 C 410.28 182.15 410.32 213.59 410.56 245.03 C 410.41 246.84 410.88 249.02 409.33 250.34 C 404.36 251.00 399.18 250.50 394.17 250.61 C 393.26 251.51 392.36 252.41 391.47 253.32 C 391.11 253.68 390.74 254.04 390.37 254.40 C 390.07 241.57 390.63 228.77 389.87 216.00 C 389.67 200.17 389.79 184.33 389.74 168.49 C 350.30 168.52 310.86 168.48 271.42 168.50 C 270.57 164.14 270.87 159.78 270.48 155.40 C 268.61 152.78 265.81 153.47 263.01 153.31 C 258.42 153.42 253.80 153.19 249.23 153.49 C 247.44 153.77 244.89 154.43 244.60 156.57 C 244.01 160.20 244.34 164.01 244.30 167.69 C 211.87 167.69 179.43 167.65 147.00 167.74 C 140.75 167.84 134.70 167.26 128.51 168.58 C 128.08 175.73 128.49 182.88 128.01 190.02 C 127.62 195.64 127.78 201.36 127.75 207.00 C 127.64 262.17 127.66 317.34 127.65 372.50 C 121.54 372.45 115.44 372.44 109.33 372.46 C 109.38 341.63 109.35 310.82 109.30 280.00 C 108.15 260.72 108.97 241.32 108.59 222.00 C 108.60 198.22 108.09 174.21 108.48 150.47 Z" fill="#e7dcbd" />
<path d="M 266.60 157.35 C 267.05 160.41 267.58 163.30 267.19 166.40 C 266.66 166.97 266.01 167.24 265.24 167.21 C 259.73 167.44 254.20 167.18 248.69 167.26 C 248.69 163.97 248.69 160.67 248.70 157.37 C 254.67 157.32 260.63 157.40 266.60 157.35 Z" fill="#e7dcbd" />
<path d="M 172.00 171.52 C 201.67 171.63 231.33 171.28 261.00 171.52 C 279.00 171.74 297.00 171.75 315.00 171.75 C 338.69 172.51 362.43 172.22 386.13 172.33 C 386.15 187.23 386.25 202.10 385.88 217.00 C 385.61 252.00 385.85 287.00 385.64 322.00 C 385.61 339.89 386.03 357.81 385.51 375.69 L 382.67 374.95 C 381.41 374.44 381.89 372.10 381.72 371.00 C 381.72 333.00 381.81 295.00 381.42 257.00 C 381.45 230.11 381.28 203.22 381.47 176.33 C 358.32 176.39 335.15 176.26 312.00 176.60 C 279.66 176.89 247.34 176.03 215.00 176.60 C 188.97 176.50 162.94 176.18 136.91 176.31 C 136.57 194.20 136.74 212.11 137.21 230.00 C 137.14 246.66 137.43 263.36 137.16 280.01 C 136.63 289.67 136.83 299.32 136.82 309.00 C 137.54 325.98 137.00 342.99 137.24 360.00 C 137.33 364.27 137.16 368.45 136.74 372.70 C 135.29 372.67 133.85 372.65 132.40 372.62 C 132.14 340.08 132.37 307.54 132.44 275.00 C 132.47 240.51 132.43 205.93 132.73 171.45 C 145.81 171.24 158.91 171.61 172.00 171.52 Z" fill="#f39e00" />
<path d="M 377.33 179.39 C 377.32 183.19 377.33 186.99 377.31 190.79 C 372.85 190.72 368.47 190.44 364.03 191.11 C 360.83 191.59 357.82 191.71 354.65 190.96 C 346.96 189.34 339.77 190.10 332.00 189.79 C 328.37 189.66 324.78 189.95 321.18 190.31 C 314.17 191.04 307.07 190.49 300.00 190.65 C 269.33 190.48 238.66 190.53 207.98 190.67 C 202.96 190.68 198.04 189.71 193.01 189.70 C 175.57 189.75 158.13 189.63 140.69 189.58 C 140.72 186.40 140.74 183.23 140.75 180.05 C 172.86 180.45 204.89 180.35 237.00 180.27 C 244.35 180.46 251.66 179.75 259.00 180.07 C 298.39 179.10 337.91 179.50 377.33 179.39 Z" fill="#b6bdbf" />
<path d="M 140.69 189.58 C 158.13 189.63 175.57 189.75 193.01 189.70 C 198.04 189.71 202.96 190.68 207.98 190.67 C 238.66 190.53 269.33 190.48 300.00 190.65 C 307.07 190.49 314.17 191.04 321.18 190.31 C 324.78 189.95 328.37 189.66 332.00 189.79 C 339.77 190.10 346.96 189.34 354.65 190.96 C 357.82 191.71 360.83 191.59 364.03 191.11 C 368.47 190.44 372.85 190.72 377.31 190.79 C 377.30 191.33 377.30 191.86 377.30 192.40 C 345.53 192.31 313.77 192.30 282.00 192.21 C 275.38 192.47 268.87 191.45 262.26 191.44 C 244.66 191.47 227.06 191.37 209.46 191.35 C 204.28 191.32 199.18 190.48 194.00 190.47 C 176.23 190.58 158.45 190.44 140.68 190.57 L 140.69 189.58 Z" fill="#f8f9f8" />
<path d="M 140.68 190.57 C 158.45 190.44 176.23 190.58 194.00 190.47 C 199.18 190.48 204.28 191.32 209.46 191.35 C 227.06 191.37 244.66 191.47 262.26 191.44 C 268.87 191.45 275.38 192.47 282.00 192.21 C 313.77 192.30 345.53 192.31 377.30 192.40 C 377.29 195.00 377.27 197.61 377.26 200.22 C 355.84 200.25 334.41 200.31 312.99 200.16 C 294.38 199.17 275.96 200.30 257.39 200.22 C 257.25 227.28 257.73 254.33 257.58 281.39 C 255.56 281.39 253.54 281.38 251.53 281.40 C 251.49 280.21 251.44 279.02 251.37 277.84 C 249.39 268.52 250.93 258.54 250.29 248.99 C 249.65 241.33 249.69 233.68 249.70 226.00 C 249.86 216.98 248.81 208.48 251.62 199.70 C 230.75 199.77 209.87 199.35 189.00 199.39 C 181.01 199.31 172.99 199.52 165.02 199.10 C 156.92 198.58 148.77 198.92 140.65 198.79 C 140.65 196.05 140.65 193.31 140.68 190.57 Z" fill="#9ea4a3" />
<path d="M 262.68 204.59 C 281.74 203.99 300.92 204.47 320.00 204.21 C 339.06 203.44 358.18 203.88 377.26 203.75 C 377.27 205.93 377.29 208.11 377.30 210.28 C 370.77 214.69 364.71 219.68 358.52 224.55 C 350.82 230.13 343.39 236.04 335.97 241.99 C 326.19 249.53 316.31 256.93 306.70 264.68 C 303.06 267.45 299.44 270.22 296.11 273.36 C 284.87 273.45 273.64 273.44 262.41 273.41 C 262.49 250.55 262.31 227.41 262.68 204.59 Z" fill="#b6bdbf" />
<path d="M 141.05 204.63 C 157.03 204.59 173.02 204.66 189.00 204.65 C 195.35 204.61 201.63 205.34 207.98 204.86 C 221.48 204.73 234.98 204.73 248.48 204.70 C 248.51 224.13 248.26 243.57 248.28 263.00 C 248.26 266.37 248.50 269.83 248.09 273.18 C 247.68 274.01 247.06 274.37 246.22 274.25 C 238.76 274.45 231.27 274.20 223.80 274.30 C 217.54 269.11 210.69 264.78 204.48 259.54 C 194.87 251.79 184.98 244.40 175.28 236.76 C 168.75 231.95 162.78 226.52 156.06 221.94 C 151.46 218.13 146.13 215.28 141.53 211.51 C 141.05 209.29 141.16 206.90 141.05 204.63 Z" fill="#b6bdbf" />
<path d="M 206.22 205.72 C 202.26 209.24 197.73 212.23 193.46 215.41 C 190.39 217.69 187.15 219.56 183.67 221.15 C 188.39 216.09 194.06 212.63 199.68 208.69 C 201.67 207.27 203.91 206.47 206.22 205.72 Z" fill="#f8f9f8" />
<path d="M 337.42 208.68 C 333.80 214.52 327.00 218.37 321.64 222.53 C 322.56 220.76 323.37 219.24 325.07 218.11 C 329.32 215.00 332.79 211.26 337.42 208.68 Z" fill="#f8f9f8" />
<path d="M 376.80 215.36 C 376.72 217.89 376.64 220.41 376.54 222.94 C 369.70 226.41 364.01 232.04 357.68 236.60 C 342.01 248.98 326.40 261.42 310.56 273.59 C 307.75 275.70 305.32 278.38 302.38 280.29 C 298.10 281.34 293.39 281.16 289.00 281.30 C 280.05 281.30 271.09 281.31 262.14 281.33 C 262.20 279.80 262.25 278.27 262.31 276.74 C 274.32 276.72 286.33 276.91 298.33 276.56 C 302.91 272.37 307.88 268.61 312.75 264.76 C 319.09 260.09 325.01 254.92 331.44 250.37 C 346.31 238.39 361.68 227.02 376.80 215.36 Z" fill="#b6bdbf" />
<path d="M 140.86 215.99 C 144.68 218.19 148.21 220.61 151.67 223.34 C 165.34 233.20 178.35 244.01 191.68 254.33 C 199.65 261.11 208.07 267.32 216.45 273.60 C 219.20 275.54 221.31 277.88 224.94 277.73 C 233.75 277.86 242.56 277.57 251.37 277.84 C 251.44 279.02 251.49 280.21 251.53 281.40 C 240.06 281.62 228.59 281.22 217.13 281.64 C 204.99 272.25 192.85 262.80 181.18 252.81 C 177.52 249.79 173.61 247.07 169.81 244.17 C 160.04 236.93 150.71 229.15 140.78 222.12 C 140.80 220.08 140.83 218.04 140.86 215.99 Z" fill="#b6bdbf" />
<path d="M 234.99 223.73 C 232.34 227.46 229.35 230.87 225.85 233.84 C 221.72 237.31 218.20 241.28 213.86 244.45 C 215.32 240.75 217.78 238.24 220.85 235.83 C 225.75 231.99 230.01 227.45 234.99 223.73 Z" fill="#f8f9f8" />
<path d="M 376.61 226.97 C 376.87 246.00 376.55 265.05 376.63 284.08 C 360.10 283.66 343.54 284.01 327.00 283.87 C 319.80 283.76 312.82 284.22 305.65 283.32 C 312.88 276.06 321.72 270.16 329.76 263.77 C 338.97 256.29 348.42 249.12 357.63 241.64 C 363.76 236.50 370.31 231.90 376.61 226.97 Z" fill="#b6bdbf" />
<path d="M 140.86 226.92 C 151.15 234.69 161.13 242.85 171.57 250.42 C 185.32 261.51 199.22 272.39 212.86 283.63 C 188.82 283.78 164.77 283.61 140.74 283.64 C 140.79 264.73 140.68 245.82 140.86 226.92 Z" fill="#b6bdbf" />
<path d="M 307.89 239.37 C 304.09 244.76 298.94 247.79 294.05 252.03 C 291.65 254.12 289.45 255.34 286.40 256.31 C 290.47 251.48 295.78 248.63 300.33 244.31 C 302.61 242.15 305.02 240.65 307.89 239.37 Z" fill="#f8f9f8" />
<path d="M 391.47 253.32 L 391.52 254.79 C 393.02 254.62 394.51 254.41 396.00 254.15 C 396.17 262.56 395.43 271.16 396.72 279.47 C 394.55 279.45 392.49 279.91 390.41 280.47 C 390.39 271.78 390.51 263.09 390.37 254.40 C 390.74 254.04 391.11 253.68 391.47 253.32 Z" fill="#9ea4a3" />
<path d="M 396.00 254.15 L 398.39 253.77 C 398.82 255.38 399.30 256.99 399.65 258.63 C 399.73 264.33 399.64 270.04 399.61 275.75 C 402.88 276.21 405.71 276.25 408.96 275.59 C 409.38 276.92 409.90 278.24 410.38 279.55 C 405.81 279.72 401.29 279.69 396.72 279.47 C 395.43 271.16 396.17 262.56 396.00 254.15 Z" fill="#b6bdbf" />
<path d="M 398.39 253.77 C 402.50 253.85 406.57 254.12 410.67 253.75 C 410.53 262.35 410.66 270.96 410.38 279.55 C 409.90 278.24 409.38 276.92 408.96 275.59 C 408.68 270.15 409.36 264.48 408.51 259.11 C 406.50 257.68 402.13 258.65 399.65 258.63 C 399.30 256.99 398.82 255.38 398.39 253.77 Z" fill="#9ea4a3" />
<path d="M 408.51 259.11 C 409.36 264.48 408.68 270.15 408.96 275.59 C 405.71 276.25 402.88 276.21 399.61 275.75 C 399.64 270.04 399.73 264.33 399.65 258.63 C 402.13 258.65 406.50 257.68 408.51 259.11 Z" fill="#213f46" />
<path d="M 402.30 261.49 C 403.71 261.60 405.12 261.70 406.53 261.81 C 406.54 265.95 406.54 270.10 406.54 274.24 C 405.06 274.31 403.58 274.39 402.11 274.46 C 401.58 270.03 401.68 265.91 402.30 261.49 Z" fill="#f39e00" />
<path d="M 390.34 282.61 C 396.81 283.42 403.27 283.35 409.77 283.33 C 409.90 313.43 409.59 343.54 409.70 373.65 C 403.04 373.64 396.38 373.67 389.71 373.64 C 389.74 355.42 389.74 337.21 389.90 319.00 C 390.50 306.87 390.19 294.76 390.34 282.61 Z" fill="#e7dcbd" />
<path d="M 216.72 285.89 C 228.98 285.75 241.26 285.84 253.52 285.83 C 253.20 287.33 252.95 288.84 252.78 290.36 C 241.88 290.39 230.96 290.17 220.08 290.63 C 213.07 297.45 204.77 302.99 197.22 309.20 C 182.17 321.19 167.02 333.04 151.70 344.69 C 147.96 347.39 144.24 350.09 140.66 353.00 C 140.65 350.87 140.64 348.75 140.62 346.62 C 149.12 340.15 157.69 333.71 165.88 326.86 C 183.06 313.39 199.91 299.82 216.72 285.89 Z" fill="#b6bdbf" />
<path d="M 253.52 285.83 C 255.09 285.81 256.66 285.82 258.23 285.83 C 258.61 314.38 258.64 342.91 258.61 371.46 C 219.25 371.52 179.90 371.32 140.54 371.32 C 140.53 369.37 140.53 367.43 140.52 365.48 C 178.18 365.39 215.84 365.77 253.50 365.65 C 253.67 352.43 253.46 339.22 253.43 326.00 C 253.36 314.10 253.62 302.24 252.78 290.36 C 252.95 288.84 253.20 287.33 253.52 285.83 Z" fill="#9ea4a3" />
<path d="M 262.24 285.71 C 275.44 285.74 288.63 285.54 301.82 285.71 C 303.26 287.22 304.73 288.71 306.29 290.10 C 304.24 290.87 302.22 291.71 300.23 292.64 C 299.48 291.93 298.72 291.21 297.97 290.48 C 286.06 290.41 274.16 290.54 262.25 290.41 C 262.25 288.84 262.25 287.28 262.24 285.71 Z" fill="#b6bdbf" />
<path d="M 140.56 288.82 C 162.63 288.85 184.72 288.62 206.79 288.84 C 199.54 295.60 191.37 301.41 183.77 307.78 C 179.24 311.62 174.29 314.89 169.82 318.81 C 160.34 326.76 150.34 334.04 140.73 341.82 C 140.45 324.15 140.52 306.48 140.56 288.82 Z" fill="#b6bdbf" />
<path d="M 311.28 289.27 C 333.35 289.37 355.43 289.13 377.50 289.33 C 377.67 306.82 377.65 324.32 377.79 341.81 C 372.74 338.01 367.93 333.92 362.83 330.18 C 354.64 324.04 346.92 317.31 338.69 311.23 C 329.50 303.98 320.42 296.59 311.28 289.27 Z" fill="#b6bdbf" />
<path d="M 306.29 290.10 C 320.05 300.85 333.35 312.20 347.32 322.70 C 357.54 330.50 367.29 338.93 377.65 346.55 C 377.60 348.65 377.55 350.75 377.49 352.85 C 360.11 339.44 342.51 326.36 325.34 312.68 C 316.96 306.04 308.19 299.78 300.23 292.64 C 302.22 291.71 304.24 290.87 306.29 290.10 Z" fill="#b6bdbf" />
<path d="M 230.00 293.74 C 236.75 293.82 243.50 293.74 250.25 293.82 C 250.37 316.69 250.26 339.57 250.17 362.45 C 213.63 362.44 177.10 362.46 140.57 362.54 C 140.59 361.00 140.62 359.46 140.65 357.92 C 147.40 352.94 154.16 347.98 160.68 342.70 C 169.90 335.61 179.26 328.65 188.21 321.22 C 198.92 312.94 209.57 304.62 220.08 296.08 C 223.04 293.55 226.34 293.81 230.00 293.74 Z" fill="#b6bdbf" />
<path d="M 262.52 294.70 C 272.35 294.65 282.17 294.69 292.00 294.65 C 294.20 294.73 296.15 294.52 297.96 296.02 C 311.90 307.76 326.72 318.66 340.97 330.05 C 350.91 337.41 360.71 344.92 370.52 352.44 C 373.84 355.28 377.70 356.37 377.93 361.37 C 344.28 361.51 310.64 361.40 277.00 361.55 C 272.36 361.51 267.66 361.86 263.04 361.47 C 262.90 360.33 262.81 359.18 262.76 358.03 C 262.77 336.90 262.69 315.84 262.52 294.70 Z" fill="#b6bdbf" />
<path d="M 176.58 298.11 C 170.75 303.19 163.56 306.85 156.60 310.13 C 160.31 306.38 164.73 303.96 169.08 301.08 C 171.37 299.53 173.92 298.76 176.58 298.11 Z" fill="#f8f9f8" />
<path d="M 325.89 298.51 C 329.57 298.31 333.04 298.14 336.51 299.61 C 333.93 300.40 331.30 301.04 328.68 301.66 C 327.74 300.61 326.81 299.56 325.89 298.51 Z" fill="#e7dcbd" />
<path d="M 235.09 314.40 C 231.26 318.08 226.52 320.13 222.25 323.21 C 219.21 325.36 216.03 327.12 212.62 328.64 C 215.27 326.26 218.01 323.98 220.92 321.92 C 225.47 318.79 229.55 315.59 235.09 314.40 Z" fill="#f8f9f8" />
<path d="M 377.29 364.50 C 377.31 366.87 377.33 369.23 377.35 371.60 C 346.82 371.54 316.30 371.48 285.78 371.57 C 297.98 370.86 310.18 371.39 322.39 370.46 C 323.49 368.46 324.62 366.48 325.76 364.51 C 342.93 364.52 360.11 364.31 377.29 364.50 Z" fill="#b6bdbf" />
<path d="M 262.54 365.38 C 268.32 364.79 274.19 364.73 280.00 364.68 C 295.25 364.63 310.51 364.42 325.76 364.51 C 324.62 366.48 323.49 368.46 322.39 370.46 C 310.18 371.39 297.98 370.86 285.78 371.57 C 278.02 371.64 270.25 371.51 262.49 371.55 C 262.49 369.50 262.47 367.44 262.54 365.38 Z" fill="#9ea4a3" />
</svg>