<?xml version="1.0" encoding="UTF-8" standalone="no"?>
<!DOCTYPE svg PUBLIC "-//W3C//DTD SVG 1.1//EN" "http://www.w3.org/Graphics/SVG/1.1/DTD/svg11.dtd">
<svg xmlns="http://www.w3.org/2000/svg" version="1.1" viewBox="0 0 512 512" width="512.0pt" height="512.0pt">
<path d="M 0.00 0.00 L 512.00 0.00 L 512.00 512.00 L 0.00 512.00 L 0.00 0.00 Z" fill="#fdfdfd" />
<path d="M 220.68 91.35 C 220.69 102.32 220.67 113.29 220.66 124.26 C 227.56 132.83 234.13 141.42 240.71 150.22 C 242.69 153.10 245.81 155.54 245.75 159.27 C 218.33 159.33 190.90 159.30 163.48 159.32 C 161.91 168.30 161.41 177.32 160.41 186.36 C 158.89 198.05 157.97 209.78 156.40 221.47 C 155.79 221.69 155.19 221.90 154.58 222.12 C 153.78 221.55 152.98 220.97 152.16 220.43 C 149.47 222.50 147.06 224.73 144.14 226.51 C 145.13 217.34 145.89 208.17 147.08 199.02 C 147.51 193.31 147.98 187.64 148.97 181.99 C 150.12 173.01 150.99 163.99 151.72 154.97 C 151.99 153.06 152.17 150.87 153.12 149.16 C 158.21 141.65 164.02 134.73 169.54 127.56 C 172.02 124.58 171.24 121.57 171.35 118.00 C 171.34 109.13 171.27 100.25 171.39 91.38 C 187.81 91.25 204.26 91.39 220.68 91.35 Z" fill="#2c1718" />
<path d="M 183.35 103.60 C 186.95 103.64 190.54 103.65 194.14 103.64 C 194.44 117.98 194.38 132.33 194.67 146.67 C 186.31 146.62 177.95 146.77 169.60 146.58 C 172.91 141.61 176.47 136.80 180.14 132.09 C 181.72 129.94 183.36 127.96 183.32 125.14 C 183.40 117.96 183.30 110.78 183.35 103.60 Z" fill="#c5d6fe" />
<path d="M 194.14 103.64 C 198.89 103.63 203.64 103.66 208.38 103.66 C 208.44 110.12 208.43 116.59 208.53 123.05 C 208.48 126.71 210.42 129.64 212.56 132.43 C 216.18 136.97 219.66 141.68 222.64 146.67 C 213.32 146.68 203.99 146.68 194.67 146.67 C 194.38 132.33 194.44 117.98 194.14 103.64 Z" fill="#aec4dc" />
<path d="M 288.71 138.75 C 302.79 138.85 316.94 138.45 331.00 139.24 C 353.88 139.30 376.76 139.33 399.65 139.34 C 399.47 182.90 399.46 226.45 399.51 270.00 C 399.70 310.88 399.44 351.76 399.55 392.63 C 405.83 392.66 412.06 392.64 418.31 393.33 C 418.31 396.63 418.48 399.97 418.23 403.26 C 417.17 404.85 415.66 404.16 413.99 404.36 C 394.80 404.25 375.59 404.47 356.40 404.21 C 351.25 402.26 346.32 403.10 341.00 403.06 C 337.32 403.09 334.05 401.88 330.70 400.54 C 330.50 398.78 330.43 396.86 329.80 395.20 C 328.39 393.60 325.63 393.10 323.70 392.35 C 337.69 392.45 351.69 392.26 365.68 392.49 C 365.73 387.20 365.70 381.90 365.67 376.61 C 367.18 377.29 368.69 377.99 370.20 378.68 C 370.94 380.98 371.69 383.27 372.44 385.57 C 374.07 386.14 375.70 386.71 377.32 387.28 C 377.32 388.95 377.31 390.63 377.30 392.30 C 380.46 392.32 383.62 392.34 386.77 392.33 C 386.77 388.09 386.74 383.85 386.76 379.60 C 389.00 377.64 391.08 375.84 391.77 372.80 C 392.76 369.67 392.16 366.77 391.52 363.64 C 389.92 363.22 388.35 362.79 386.74 362.44 C 386.58 291.84 386.78 221.23 386.61 150.64 C 372.35 150.68 358.09 150.70 343.82 150.68 C 329.78 150.65 315.74 150.68 301.69 150.70 C 301.66 176.07 301.66 201.44 301.71 226.81 C 300.41 224.77 299.08 222.74 297.74 220.72 C 297.71 221.58 297.69 222.43 297.67 223.29 C 295.75 222.85 293.83 222.52 291.87 222.34 C 291.17 224.58 291.00 225.49 288.76 226.65 C 288.64 197.35 288.70 168.04 288.71 138.75 Z" fill="#2e1b1d" />
<path d="M 301.69 150.70 C 315.74 150.68 329.78 150.65 343.82 150.68 C 343.58 158.84 343.61 167.01 343.66 175.18 C 340.54 175.22 338.34 176.00 336.69 178.79 C 336.01 181.22 335.97 184.05 336.63 186.48 C 337.75 188.54 340.03 190.10 341.96 191.35 C 342.48 191.68 342.99 192.01 343.51 192.34 C 343.47 203.52 343.74 214.70 343.61 225.88 C 342.31 226.35 341.01 226.81 339.69 227.23 C 327.05 227.24 314.33 227.44 301.71 226.81 C 301.66 201.44 301.66 176.07 301.69 150.70 Z" fill="#d4cdcb" />
<path d="M 343.82 150.68 C 358.09 150.70 372.35 150.68 386.61 150.64 C 386.78 221.23 386.58 291.84 386.74 362.44 C 366.00 362.15 345.16 362.51 324.41 362.50 C 324.63 330.91 324.32 299.31 324.64 267.73 C 329.66 267.70 334.67 267.66 339.69 267.66 C 339.70 254.18 339.66 240.71 339.69 227.23 C 341.01 226.81 342.31 226.35 343.61 225.88 C 343.74 214.70 343.47 203.52 343.51 192.34 C 342.99 192.01 342.48 191.68 341.96 191.35 C 344.78 191.43 347.24 191.48 349.38 189.37 C 351.09 187.45 352.76 184.47 352.31 181.83 C 351.72 179.55 350.39 176.85 348.22 175.70 C 346.77 175.26 345.16 175.28 343.66 175.18 C 343.61 167.01 343.58 158.84 343.82 150.68 Z" fill="#c1a698" />
<path d="M 343.66 175.18 C 345.16 175.28 346.77 175.26 348.22 175.70 C 350.39 176.85 351.72 179.55 352.31 181.83 C 352.76 184.47 351.09 187.45 349.38 189.37 C 347.24 191.48 344.78 191.43 341.96 191.35 C 340.03 190.10 337.75 188.54 336.63 186.48 C 335.97 184.05 336.01 181.22 336.69 178.79 C 338.34 176.00 340.54 175.22 343.66 175.18 Z" fill="#281719" />
<path d="M 152.16 220.43 C 152.98 220.97 153.78 221.55 154.58 222.12 C 155.19 221.90 155.79 221.69 156.40 221.47 C 156.28 223.21 156.21 224.95 156.12 226.69 C 200.28 226.63 244.57 226.73 288.76 226.65 C 291.00 225.49 291.17 224.58 291.87 222.34 C 293.83 222.52 295.75 222.85 297.67 223.29 C 297.69 222.43 297.71 221.58 297.74 220.72 C 299.08 222.74 300.41 224.77 301.71 226.81 C 314.33 227.44 327.05 227.24 339.69 227.23 C 339.66 240.71 339.70 254.18 339.69 267.66 C 334.67 267.66 329.66 267.70 324.64 267.73 C 324.32 299.31 324.63 330.91 324.41 362.50 C 345.16 362.51 366.00 362.15 386.74 362.44 C 388.35 362.79 389.92 363.22 391.52 363.64 C 392.16 366.77 392.76 369.67 391.77 372.80 C 391.08 375.84 389.00 377.64 386.76 379.60 C 386.75 377.84 386.74 376.08 386.74 374.32 C 383.61 374.33 380.47 374.28 377.34 374.38 C 377.24 378.68 377.37 382.98 377.32 387.28 C 375.70 386.71 374.07 386.14 372.44 385.57 C 371.69 383.27 370.94 380.98 370.20 378.68 C 368.69 377.99 367.18 377.29 365.67 376.61 C 365.67 375.63 365.66 374.66 365.65 373.69 C 355.77 373.70 345.88 373.73 336.00 373.67 C 331.86 373.63 327.79 374.41 323.65 374.42 C 323.68 380.39 323.64 386.37 323.70 392.35 C 325.63 393.10 328.39 393.60 329.80 395.20 C 330.43 396.86 330.50 398.78 330.70 400.54 C 334.05 401.88 337.32 403.09 341.00 403.06 C 346.32 403.10 351.25 402.26 356.40 404.21 C 334.41 404.28 312.42 404.24 290.43 404.20 C 289.10 403.70 287.79 403.17 286.48 402.63 C 287.33 401.21 288.19 399.79 289.05 398.37 C 287.90 398.48 286.75 398.60 285.60 398.72 C 285.78 398.04 285.95 397.35 286.13 396.67 C 285.36 395.74 284.60 394.81 283.83 393.88 C 285.39 393.38 286.95 392.88 288.50 392.38 C 288.46 370.41 288.78 348.45 288.65 326.49 C 280.41 326.52 272.17 326.45 263.92 326.34 C 260.43 320.08 256.92 314.24 251.08 309.89 C 242.18 302.37 231.27 300.32 219.96 299.76 C 209.67 300.30 199.76 303.06 191.79 309.84 C 185.97 314.15 181.94 320.04 178.97 326.57 C 170.75 326.86 162.51 326.56 154.29 326.75 C 154.34 348.63 154.25 370.51 154.36 392.40 L 154.36 392.87 C 156.43 393.11 158.52 393.25 160.59 393.40 C 160.74 395.74 160.78 398.04 160.66 400.38 C 162.97 401.08 165.28 401.76 167.60 402.41 C 167.08 403.11 166.55 403.80 166.03 404.50 C 143.80 404.52 121.57 404.76 99.33 404.66 C 99.34 400.61 99.34 396.55 99.34 392.50 C 105.77 392.50 112.21 392.49 118.65 392.49 C 118.69 369.66 118.65 346.83 118.70 324.00 C 119.66 301.61 119.18 279.10 119.36 256.68 C 126.68 256.71 134.00 256.64 141.32 256.71 L 142.87 256.71 C 141.79 258.05 140.70 259.37 139.52 260.62 C 140.96 263.25 142.68 265.59 144.63 267.86 C 140.26 267.79 135.78 267.70 131.42 268.05 L 131.39 268.67 C 131.34 309.91 131.24 351.19 131.41 392.43 C 134.85 392.43 138.29 392.42 141.73 392.37 C 141.70 372.92 141.86 353.46 141.74 334.00 C 141.80 328.38 141.61 322.72 141.95 317.11 L 142.55 315.30 C 152.18 315.37 161.81 315.30 171.43 315.37 C 175.67 307.15 182.50 300.95 190.40 296.35 C 200.03 289.96 212.63 287.82 224.00 288.30 C 233.11 288.14 241.89 290.72 249.83 295.08 C 259.06 299.21 265.29 307.32 272.09 314.33 L 272.64 314.61 C 282.11 315.19 291.91 313.83 301.27 315.41 C 301.40 341.03 301.30 366.65 301.34 392.27 C 304.65 392.31 307.97 392.31 311.28 392.30 C 311.38 367.15 311.18 342.00 311.39 316.85 C 311.57 300.66 311.67 284.48 311.67 268.29 C 307.66 268.29 303.65 268.31 299.63 268.31 C 302.05 265.67 304.43 263.29 305.52 259.77 C 306.11 257.94 307.63 257.45 309.15 256.48 C 314.98 256.46 320.82 256.51 326.65 256.49 C 326.66 250.73 326.68 244.97 326.64 239.21 C 293.00 239.34 259.38 239.26 225.74 239.32 C 182.28 239.35 138.82 239.35 95.36 239.23 C 95.41 235.05 95.32 230.86 95.36 226.67 C 111.61 226.58 127.90 226.87 144.14 226.51 C 147.06 224.73 149.47 222.50 152.16 220.43 Z" fill="#2a181d" />
<path d="M 95.36 239.23 C 138.82 239.35 182.28 239.35 225.74 239.32 L 225.72 240.13 C 225.65 245.63 225.54 251.13 225.26 256.63 C 197.80 256.74 170.32 256.58 142.87 256.71 L 141.32 256.71 C 141.25 250.97 141.26 245.24 140.94 239.50 C 125.76 239.23 110.54 239.30 95.35 239.33 L 95.36 239.23 Z" fill="#fef9ab" />
<path d="M 225.74 239.32 C 259.38 239.26 293.00 239.34 326.64 239.21 C 326.68 244.97 326.66 250.73 326.65 256.49 C 320.82 256.51 314.98 256.46 309.15 256.48 C 296.60 256.57 284.05 256.47 271.50 256.62 C 274.18 251.19 269.62 246.40 269.94 240.70 C 263.93 239.71 258.05 240.17 252.00 240.11 C 243.24 240.12 234.48 240.11 225.72 240.13 L 225.74 239.32 Z" fill="#fec475" />
<path d="M 225.72 240.13 C 234.48 240.11 243.24 240.12 252.00 240.11 C 258.05 240.17 263.93 239.71 269.94 240.70 C 269.62 246.40 274.18 251.19 271.50 256.62 C 256.08 256.70 240.67 256.62 225.26 256.63 C 225.54 251.13 225.65 245.63 225.72 240.13 Z" fill="#fecd6f" />
<path d="M 142.87 256.71 C 170.32 256.58 197.80 256.74 225.26 256.63 C 240.67 256.62 256.08 256.70 271.50 256.62 C 284.05 256.47 296.60 256.57 309.15 256.48 C 307.63 257.45 306.11 257.94 305.52 259.77 C 304.43 263.29 302.05 265.67 299.63 268.31 C 290.46 268.36 281.28 268.33 272.11 268.35 C 225.44 268.23 178.77 268.77 132.11 268.67 L 131.39 268.67 L 131.42 268.05 C 135.78 267.70 140.26 267.79 144.63 267.86 C 142.68 265.59 140.96 263.25 139.52 260.62 C 140.70 259.37 141.79 258.05 142.87 256.71 Z" fill="#2b1c26" />
<path d="M 272.11 268.35 C 272.54 283.69 271.47 299.00 272.09 314.33 C 265.29 307.32 259.06 299.21 249.83 295.08 C 241.89 290.72 233.11 288.14 224.00 288.30 C 212.63 287.82 200.03 289.96 190.40 296.35 C 182.50 300.95 175.67 307.15 171.43 315.37 C 161.81 315.30 152.18 315.37 142.55 315.30 L 141.95 317.11 C 140.86 317.99 139.21 320.23 137.63 319.35 C 134.76 317.90 132.05 315.55 132.19 312.04 C 132.00 297.60 132.12 283.11 132.11 268.67 C 178.77 268.77 225.44 268.23 272.11 268.35 Z" fill="#fecb38" />
<path d="M 272.11 268.35 C 281.28 268.33 290.46 268.36 299.63 268.31 C 303.65 268.31 307.66 268.29 311.67 268.29 C 311.67 284.48 311.57 300.66 311.39 316.85 C 308.07 315.65 304.71 315.79 301.27 315.41 C 291.91 313.83 282.11 315.19 272.64 314.61 L 272.09 314.33 C 271.47 299.00 272.54 283.69 272.11 268.35 Z" fill="#edb24c" />
<path d="M 131.39 268.67 L 132.11 268.67 C 132.12 283.11 132.00 297.60 132.19 312.04 C 132.05 315.55 134.76 317.90 137.63 319.35 C 139.21 320.23 140.86 317.99 141.95 317.11 C 141.61 322.72 141.80 328.38 141.74 334.00 C 141.86 353.46 141.70 372.92 141.73 392.37 C 138.29 392.42 134.85 392.43 131.41 392.43 C 131.24 351.19 131.34 309.91 131.39 268.67 Z" fill="#fdc72c" />
<path d="M 219.96 299.76 C 231.27 300.32 242.18 302.37 251.08 309.89 C 256.92 314.24 260.43 320.08 263.92 326.34 C 272.17 326.45 280.41 326.52 288.65 326.49 C 288.78 348.45 288.46 370.41 288.50 392.38 C 243.81 392.34 199.04 392.28 154.36 392.40 C 154.25 370.51 154.34 348.63 154.29 326.75 C 162.51 326.56 170.75 326.86 178.97 326.57 C 181.94 320.04 185.97 314.15 191.79 309.84 C 199.76 303.06 209.67 300.30 219.96 299.76 Z" fill="#fdfdfd" />
<path d="M 311.39 316.85 C 311.18 342.00 311.38 367.15 311.28 392.30 C 307.97 392.31 304.65 392.31 301.34 392.27 C 301.30 366.65 301.40 341.03 301.27 315.41 C 304.71 315.79 308.07 315.65 311.39 316.85 Z" fill="#fdbd3d" />
<path d="M 336.00 373.67 C 345.88 373.73 355.77 373.70 365.65 373.69 C 365.66 374.66 365.67 375.63 365.67 376.61 C 365.70 381.90 365.73 387.20 365.68 392.49 C 351.69 392.26 337.69 392.45 323.70 392.35 C 323.64 386.37 323.68 380.39 323.65 374.42 C 327.79 374.41 331.86 373.63 336.00 373.67 Z" fill="#fefefe" />
<path d="M 377.34 374.38 C 380.47 374.28 383.61 374.33 386.74 374.32 C 386.74 376.08 386.75 377.84 386.76 379.60 C 386.74 383.85 386.77 388.09 386.77 392.33 C 383.62 392.34 380.46 392.32 377.30 392.30 C 377.31 390.63 377.32 388.95 377.32 387.28 C 377.37 382.98 377.24 378.68 377.34 374.38 Z" fill="#c2a18e" />
<path d="M 154.36 392.40 C 199.04 392.28 243.81 392.34 288.50 392.38 C 286.95 392.88 285.39 393.38 283.83 393.88 C 284.60 394.81 285.36 395.74 286.13 396.67 C 285.95 397.35 285.78 398.04 285.60 398.72 C 286.75 398.60 287.90 398.48 289.05 398.37 C 288.19 399.79 287.33 401.21 286.48 402.63 C 287.79 403.17 289.10 403.70 290.43 404.20 C 248.97 404.43 207.50 404.27 166.03 404.50 C 166.55 403.80 167.08 403.11 167.60 402.41 C 165.28 401.76 162.97 401.08 160.66 400.38 C 160.78 398.04 160.74 395.74 160.59 393.40 C 158.52 393.25 156.43 393.11 154.36 392.87 L 154.36 392.40 Z" fill="#311c1f" />
</svg>