<?xml version="1.0" encoding="UTF-8" standalone="no"?>
<!DOCTYPE svg PUBLIC "-//W3C//DTD SVG 1.1//EN" "http://www.w3.org/Graphics/SVG/1.1/DTD/svg11.dtd">
<svg xmlns="http://www.w3.org/2000/svg" version="1.1" viewBox="0 0 512 512" width="512.0pt" height="512.0pt">
<path d="M 0.00 0.00 L 512.00 0.00 L 512.00 512.00 L 0.00 512.00 L 0.00 0.00 Z" fill="#f5f5f0" />
<path d="M 266.00 72.65 C 303.97 72.85 342.12 72.28 380.00 72.75 C 390.38 73.08 397.12 83.39 397.28 92.99 C 397.24 134.23 397.33 175.50 397.32 216.73 C 403.55 216.72 409.77 216.73 416.00 216.66 C 421.79 216.58 428.06 217.83 432.99 221.01 C 438.31 224.52 442.64 229.71 444.38 235.92 C 447.15 245.00 444.90 255.30 438.31 262.19 C 433.78 267.20 427.98 269.80 421.37 270.79 C 421.36 285.86 421.33 300.93 421.36 316.00 C 421.55 331.70 415.44 347.44 405.27 359.33 C 396.69 369.30 385.20 376.82 372.70 380.88 C 377.65 385.59 383.05 391.70 382.78 398.99 C 383.03 403.39 380.47 407.56 377.82 410.87 C 374.24 414.85 368.62 417.21 363.50 418.42 C 360.40 418.94 356.59 419.06 353.96 417.07 C 349.57 414.17 346.48 408.84 343.20 404.76 C 336.92 396.42 328.52 390.36 319.19 385.83 C 314.95 383.68 309.69 384.60 305.00 384.47 C 266.78 384.35 228.26 384.30 190.04 384.42 C 181.49 384.97 173.01 391.18 166.76 396.69 C 159.92 402.40 155.41 410.04 148.89 415.92 C 146.89 417.73 144.72 418.49 142.01 418.38 C 134.93 418.18 127.90 415.07 122.90 410.08 C 118.56 405.20 116.93 397.21 120.39 391.41 C 122.46 387.43 125.68 384.64 129.21 382.01 C 121.76 377.81 114.11 375.21 107.38 369.73 C 94.25 360.20 84.81 346.03 81.64 330.07 C 80.65 323.45 80.28 316.70 80.35 310.00 C 80.39 297.13 80.30 284.26 80.38 271.39 C 77.13 270.42 73.88 269.67 70.82 268.18 C 63.39 265.12 57.88 257.79 56.01 250.09 C 53.20 237.95 59.05 224.83 70.38 219.37 C 78.40 215.39 85.54 217.10 94.00 217.24 C 189.88 217.25 285.73 217.27 381.61 217.33 C 382.01 212.56 382.11 207.78 382.06 203.00 C 382.34 167.33 382.22 131.67 382.38 96.00 C 382.33 93.85 382.44 91.37 381.29 89.47 C 379.32 86.91 375.96 86.81 373.00 86.74 C 367.67 86.77 362.33 86.84 357.00 86.81 C 328.35 87.54 299.66 87.04 271.00 87.26 C 266.73 87.45 261.80 86.39 258.22 89.22 C 253.60 92.38 253.23 98.57 253.31 103.64 C 257.53 103.69 261.87 103.26 266.06 103.84 C 270.80 104.94 275.13 108.15 278.06 111.98 C 281.64 117.40 282.89 123.60 282.82 130.03 C 282.76 132.32 282.84 135.45 281.36 137.36 C 279.01 140.03 275.42 140.54 272.05 140.56 C 254.36 140.48 236.66 140.48 218.97 140.62 C 215.82 140.65 212.57 140.10 210.65 137.32 C 208.51 134.50 209.27 130.27 209.46 126.97 C 210.12 122.63 210.12 117.33 212.68 113.69 C 215.27 109.80 218.96 106.14 223.44 104.57 C 227.82 102.85 232.86 103.46 237.52 103.44 C 238.00 97.90 238.39 92.15 241.19 87.21 C 245.91 78.32 255.92 72.39 266.00 72.65 Z" fill="#3c3145" />
<path d="M 437.76 106.23 C 440.07 109.55 439.06 115.11 439.26 119.00 C 439.24 121.68 439.35 124.39 439.19 127.07 C 439.11 131.13 434.94 134.60 430.99 134.34 C 427.47 133.72 424.66 130.80 424.73 127.11 C 424.71 121.03 424.56 114.88 424.87 108.81 C 425.98 102.67 434.24 101.46 437.76 106.23 Z" fill="#3c3145" />
<path d="M 342.00 112.71 C 346.01 112.93 352.13 111.86 355.29 114.80 C 358.37 117.28 358.52 121.99 355.63 124.67 C 353.16 127.06 349.16 126.62 346.00 126.71 C 341.18 126.54 336.24 127.01 331.45 126.43 C 326.91 125.16 324.93 118.11 328.82 114.86 C 331.90 111.64 337.94 112.96 342.00 112.71 Z" fill="#3c3145" />
<path d="M 230.95 119.46 C 242.15 119.59 253.46 119.22 264.63 119.66 C 266.47 121.14 266.40 124.26 266.79 126.40 C 252.99 126.40 239.20 126.33 225.40 126.43 C 225.49 125.04 225.56 123.66 225.68 122.28 C 227.31 120.60 228.38 119.22 230.95 119.46 Z" fill="#babfd3" />
<path d="M 101.45 130.52 C 106.43 128.38 112.48 129.91 115.41 134.59 C 118.90 138.95 117.25 145.79 112.99 148.99 C 110.41 151.04 106.28 150.96 103.19 150.48 C 98.29 149.24 95.28 143.81 95.34 139.03 C 95.97 135.70 98.15 131.84 101.45 130.52 Z" fill="#3c3145" />
<path d="M 219.96 159.48 C 225.19 158.93 229.98 166.16 226.41 170.45 C 222.95 175.44 218.13 179.56 213.84 183.85 C 211.11 186.69 206.11 188.51 202.54 186.25 C 200.36 184.97 200.12 182.05 199.33 179.87 C 202.35 173.25 207.48 169.47 212.38 164.39 C 214.64 162.24 216.56 159.61 219.96 159.48 Z" fill="#3c3145" />
<path d="M 273.02 159.47 C 279.00 161.24 282.07 165.52 286.40 169.59 C 288.80 172.10 291.76 174.76 293.21 177.96 C 294.43 182.68 289.78 188.10 284.95 187.51 C 280.34 186.12 276.77 180.93 273.31 177.72 C 270.61 174.81 265.92 171.27 265.64 167.06 C 265.51 162.56 269.04 160.29 273.02 159.47 Z" fill="#3c3145" />
<path d="M 131.64 170.78 C 134.06 170.01 137.05 170.02 139.51 170.58 C 144.51 172.51 147.93 177.84 147.29 183.21 C 146.17 188.40 141.38 192.85 136.08 193.30 C 130.63 192.44 125.44 188.82 124.67 183.02 C 123.74 177.71 126.71 172.75 131.64 170.78 Z" fill="#3c3145" />
<path d="M 246.95 175.29 C 249.95 175.44 252.11 178.23 253.29 180.73 C 254.58 183.27 253.77 186.23 253.79 188.98 C 253.55 192.75 254.21 196.86 253.28 200.52 C 251.36 204.39 246.82 205.84 242.92 204.11 C 240.41 202.71 238.57 199.92 238.44 197.02 C 238.27 192.68 238.32 188.29 238.40 183.94 C 238.30 179.42 242.53 175.38 246.95 175.29 Z" fill="#3c3145" />
<path d="M 434.21 183.46 C 435.88 185.04 438.71 186.51 439.01 188.96 C 439.66 192.88 439.22 197.02 439.35 201.00 C 439.26 203.99 439.77 207.72 438.13 210.33 C 435.04 214.83 427.00 214.20 424.96 209.06 C 424.23 204.82 424.73 200.31 424.58 196.00 C 424.71 192.72 424.01 188.86 426.15 186.14 C 427.99 183.59 431.42 183.78 434.21 183.46 Z" fill="#3c3145" />
<path d="M 82.96 231.32 C 114.13 231.13 144.93 231.40 176.00 231.16 C 179.34 231.11 182.66 230.86 186.00 230.81 C 226.01 230.72 265.99 230.69 306.00 230.68 C 315.02 230.74 324.00 230.45 333.00 231.21 C 358.64 231.37 384.35 231.30 410.00 231.40 C 415.18 231.50 420.79 230.75 425.41 233.61 C 432.20 237.57 432.62 248.81 426.37 253.40 C 423.37 255.82 419.77 256.47 416.00 256.37 C 306.33 256.19 196.67 256.48 87.00 256.47 C 83.20 256.43 79.81 256.75 76.47 254.58 C 72.13 252.34 69.44 247.86 69.67 242.97 C 70.55 236.35 76.27 231.35 82.96 231.32 Z" fill="#fdda97" />
<path d="M 406.63 270.48 C 406.60 286.31 406.76 302.16 406.43 317.99 C 406.27 329.53 401.83 340.65 394.47 349.47 C 386.85 358.78 376.02 365.14 364.46 368.22 C 358.44 369.83 352.18 369.66 346.00 369.70 C 280.66 369.73 215.33 369.74 149.99 369.71 C 143.69 369.77 137.72 368.06 131.78 366.12 C 120.67 362.21 110.22 355.28 103.77 345.24 C 97.75 336.63 94.87 326.46 94.74 316.00 C 94.70 300.93 94.72 285.84 94.74 270.77 C 143.16 270.66 191.58 270.62 240.00 270.64 C 295.56 270.84 351.08 270.34 406.63 270.48 Z" fill="#babfd3" />
<path d="M 158.53 385.51 C 156.50 386.40 154.56 387.35 152.98 388.97 C 148.92 393.02 144.68 396.74 141.30 401.42 C 140.40 402.95 138.46 402.45 136.92 402.74 C 136.09 401.61 135.26 400.48 134.43 399.35 C 134.38 398.69 134.32 398.03 134.26 397.36 C 138.58 393.50 143.12 390.13 146.71 385.51 C 150.59 385.18 154.63 385.54 158.53 385.51 Z" fill="#fdda97" />
<path d="M 344.10 385.45 C 347.19 385.65 350.33 385.45 353.40 385.81 C 355.55 386.46 357.37 388.52 359.02 389.98 C 361.52 392.47 364.46 394.74 366.59 397.56 C 367.50 400.11 364.76 402.06 363.41 403.87 C 357.27 397.63 351.51 390.17 344.10 385.45 Z" fill="#fdda97" />
<path d="M 40.00 425.29 C 75.00 425.34 109.96 425.31 144.96 425.24 C 149.32 425.05 153.61 424.70 157.97 425.08 C 168.31 425.36 178.66 425.10 189.00 425.18 C 220.65 424.51 252.34 424.90 284.00 424.76 C 289.35 424.65 294.65 425.29 300.00 425.25 C 354.44 425.37 408.62 425.36 463.05 425.31 C 465.48 425.34 467.71 425.70 468.84 428.12 C 470.21 431.10 470.23 435.93 467.40 438.13 C 464.54 439.85 460.24 439.21 457.00 439.32 C 317.67 439.41 178.33 439.16 39.00 439.37 C 36.05 439.18 32.05 439.98 29.44 438.50 C 26.16 435.34 26.61 431.55 27.56 427.48 C 31.47 424.35 35.37 425.44 40.00 425.29 Z" fill="#3c3145" />
</svg>