<?xml version="1.0" encoding="UTF-8" standalone="no"?>
<!DOCTYPE svg PUBLIC "-//W3C//DTD SVG 1.1//EN" "http://www.w3.org/Graphics/SVG/1.1/DTD/svg11.dtd">
<svg xmlns="http://www.w3.org/2000/svg" version="1.1" viewBox="0 0 512 512" width="512.0pt" height="512.0pt">
<path d="M 0.00 0.00 L 512.00 0.00 L 512.00 512.00 L 0.00 512.00 L 0.00 0.00 Z" fill="#f1f4fb" />
<path d="M 122.98 62.66 C 154.97 62.66 187.02 62.73 219.01 62.68 C 222.44 62.58 226.29 63.75 228.67 66.33 C 231.97 69.30 232.33 74.48 230.24 78.25 C 229.04 81.31 226.43 82.73 224.50 85.15 C 222.13 94.17 221.85 104.70 218.58 113.58 C 245.86 113.55 273.14 113.29 300.42 113.28 C 298.62 105.21 296.87 97.25 295.80 89.04 C 295.06 83.76 290.83 81.77 288.58 77.48 C 287.46 73.24 288.77 68.91 291.57 65.64 C 293.92 63.65 296.92 62.58 300.00 62.71 C 331.67 62.80 363.33 62.57 395.00 62.65 C 399.43 62.50 404.04 64.67 406.42 68.47 C 407.90 71.20 408.01 74.98 406.94 77.86 C 405.90 80.62 403.76 82.09 401.50 83.77 C 398.80 93.57 398.23 103.73 395.32 113.51 C 414.37 113.54 433.43 113.65 452.48 113.63 C 452.52 115.88 452.55 118.13 452.58 120.38 C 376.05 120.57 299.52 119.97 223.00 120.54 C 187.34 120.55 151.66 120.82 116.00 120.50 C 103.33 120.53 90.67 120.68 78.00 120.66 C 74.98 120.60 71.82 120.94 68.84 120.43 C 67.76 119.14 67.20 117.67 66.50 116.16 C 67.01 115.32 67.53 114.48 68.04 113.63 C 86.48 113.24 104.95 113.61 123.39 113.28 C 122.67 109.17 122.33 105.02 121.37 100.96 C 120.20 95.66 119.80 90.19 118.47 84.93 C 113.83 82.23 110.41 76.26 111.84 70.87 C 112.82 65.95 118.32 62.87 122.98 62.66 Z" fill="#000101" />
<path d="M 122.98 70.37 C 153.89 70.42 185.09 70.43 216.00 70.29 C 217.76 70.40 220.33 70.06 221.79 71.19 C 224.12 73.11 223.55 76.71 220.92 77.97 C 215.18 80.13 208.06 78.81 202.00 78.86 C 176.65 78.81 151.30 78.74 125.96 78.67 C 122.73 78.82 119.64 75.65 118.29 72.97 C 119.72 71.56 120.78 70.23 122.98 70.37 Z" fill="#f2cb93" />
<path d="M 301.99 69.75 C 331.99 69.80 362.00 69.69 392.00 69.64 C 394.40 69.67 396.55 69.72 398.43 71.42 C 399.53 72.95 399.81 75.06 398.47 76.53 C 396.94 78.23 394.24 78.74 392.04 78.71 C 362.32 78.76 332.68 78.72 302.96 78.77 C 298.68 78.98 295.69 76.21 295.35 71.97 C 297.52 70.41 299.24 69.62 301.99 69.75 Z" fill="#3aa7f9" />
<path d="M 127.30 86.52 C 156.70 86.54 186.13 86.22 215.52 86.61 C 213.71 95.31 213.33 105.35 209.30 113.34 C 194.22 112.99 179.05 113.69 164.00 112.72 C 153.48 112.78 142.96 112.63 132.44 112.76 C 130.61 104.03 129.29 95.22 127.30 86.52 Z" fill="#f2cb93" />
<path d="M 303.16 86.46 C 333.10 86.45 363.05 86.62 392.99 86.57 C 391.16 95.53 388.73 104.34 387.26 113.38 C 361.06 113.57 334.85 113.36 308.65 113.33 C 306.29 104.47 305.02 95.43 303.16 86.46 Z" fill="#3aa7f9" />
<path d="M 140.45 90.57 C 143.82 89.88 148.88 90.14 150.06 94.11 C 151.52 98.06 149.87 101.50 145.84 102.57 C 143.35 102.87 139.65 103.22 137.69 101.29 C 134.93 97.94 135.61 91.67 140.45 90.57 Z" fill="#000101" />
<path d="M 160.40 90.44 C 163.84 89.63 167.00 91.80 168.15 94.99 C 169.85 98.67 165.80 103.35 162.07 103.39 C 158.55 103.81 154.95 100.65 155.31 96.99 C 154.91 93.35 157.26 91.51 160.40 90.44 Z" fill="#000101" />
<path d="M 177.11 90.99 C 181.36 89.53 186.06 92.18 185.59 96.99 C 185.49 102.41 178.39 104.14 174.54 101.39 C 170.54 99.02 173.62 92.22 177.11 90.99 Z" fill="#000101" />
<path d="M 194.99 91.42 C 198.78 91.48 203.77 90.20 206.41 93.67 C 206.99 95.98 207.35 99.57 205.17 101.18 C 203.48 103.07 200.33 102.64 197.96 103.17 C 195.49 102.65 191.98 103.15 190.67 100.50 C 188.40 97.13 190.54 91.30 194.99 91.42 Z" fill="#000101" />
<path d="M 323.67 91.39 C 326.70 92.57 328.16 96.73 326.51 99.54 C 325.56 102.43 321.51 102.57 319.07 103.44 C 316.99 102.57 313.88 102.43 313.17 99.84 C 312.02 97.01 312.40 93.87 314.73 91.76 C 317.32 90.53 321.01 90.27 323.67 91.39 Z" fill="#000101" />
<path d="M 335.48 91.64 C 337.60 90.52 339.81 90.19 342.15 90.82 C 346.08 92.09 347.43 97.84 345.10 101.02 C 341.96 104.21 335.39 103.96 333.07 99.91 C 331.88 97.34 332.68 92.89 335.48 91.64 Z" fill="#000101" />
<path d="M 353.25 91.27 C 355.39 90.11 358.70 90.10 360.93 90.99 C 364.68 92.84 364.32 98.87 363.16 102.13 C 360.29 102.92 357.10 102.93 354.16 102.55 C 349.31 101.80 349.66 93.25 353.25 91.27 Z" fill="#000101" />
<path d="M 383.13 91.78 C 384.18 94.46 385.31 96.89 383.64 99.64 C 382.01 103.42 376.20 102.69 372.91 102.31 C 368.80 101.52 368.78 95.34 370.72 92.65 C 373.74 89.70 379.53 90.31 383.13 91.78 Z" fill="#000101" />
<path d="M 126.03 130.26 C 135.35 130.03 144.68 130.35 154.00 129.90 C 178.33 129.75 202.67 129.83 227.00 129.81 C 242.01 130.00 256.99 129.60 272.00 130.14 C 289.33 130.21 306.67 130.17 324.00 130.13 C 346.67 129.62 369.33 130.09 392.01 129.88 C 400.82 129.50 407.37 137.65 407.33 146.00 C 407.35 158.33 407.34 170.67 407.37 183.00 C 407.81 243.00 407.64 303.00 407.57 363.00 C 407.57 364.62 407.53 366.23 407.27 367.83 C 404.63 367.74 401.99 367.57 399.36 367.31 C 399.29 360.98 399.36 354.64 399.34 348.30 C 399.15 296.43 399.77 244.56 399.58 192.69 C 360.39 192.70 321.19 192.76 282.00 192.79 C 278.31 192.65 274.68 193.17 271.00 193.25 C 249.33 193.23 227.67 193.24 206.00 193.18 C 185.99 192.48 165.92 192.85 145.90 192.57 C 137.42 192.34 128.93 192.33 120.45 192.40 C 120.49 254.58 120.23 316.80 120.49 378.97 C 120.62 399.44 120.64 419.91 120.65 440.38 C 213.55 440.80 306.44 440.76 399.34 440.72 C 399.37 420.12 399.55 399.52 399.61 378.93 C 402.21 377.07 403.78 376.44 407.08 376.56 C 407.31 378.70 407.35 380.85 407.34 383.00 C 407.32 402.20 407.37 421.40 407.36 440.61 C 422.49 440.56 437.62 440.62 452.75 440.56 C 452.75 442.83 452.75 445.10 452.76 447.37 C 415.17 447.55 377.58 447.36 340.00 447.65 C 248.90 447.93 157.80 447.63 66.70 447.71 C 66.67 445.23 66.68 442.74 66.71 440.26 C 82.17 440.38 97.64 440.26 113.10 440.25 C 113.56 341.83 112.92 243.37 113.29 144.98 C 113.25 137.87 118.42 130.36 126.03 130.26 Z" fill="#000101" />
<path d="M 131.00 137.28 C 164.66 137.47 198.33 137.21 232.00 137.39 C 256.33 137.46 280.67 137.18 305.00 137.30 C 333.01 137.25 361.02 137.48 389.03 137.33 C 391.80 137.34 394.34 137.54 396.48 139.51 C 399.33 141.68 399.48 144.68 399.53 147.99 C 399.46 160.41 399.48 172.83 399.41 185.25 C 335.54 185.58 271.59 185.51 207.73 185.71 C 207.60 177.05 207.81 168.38 207.76 159.72 C 184.99 159.64 162.22 159.60 139.45 159.49 C 139.22 168.07 139.41 176.66 139.31 185.25 C 133.12 185.27 126.93 185.26 120.74 185.24 C 120.67 172.49 120.74 159.75 120.68 147.00 C 120.61 143.69 121.69 140.45 124.53 138.54 C 126.52 137.16 128.68 137.35 131.00 137.28 Z" fill="#8489b2" />
<path d="M 251.39 144.48 C 257.38 142.99 263.82 144.55 268.58 148.41 C 271.70 151.52 274.57 155.35 274.34 160.00 C 274.64 168.17 270.38 176.27 262.54 179.29 C 254.18 182.32 243.88 177.69 240.46 169.53 C 235.43 160.34 241.65 147.43 251.39 144.48 Z" fill="#000101" />
<path d="M 259.84 152.35 C 264.28 153.85 266.38 157.50 267.35 161.87 C 266.62 163.93 266.11 166.21 265.00 168.09 C 262.52 170.78 259.97 173.20 255.99 172.64 C 250.52 172.62 246.39 167.32 246.96 162.04 C 246.65 155.88 253.83 149.72 259.84 152.35 Z" fill="#f2cb93" />
<path d="M 298.39 159.47 C 301.69 158.68 306.72 159.92 306.44 164.10 C 304.70 167.98 299.29 168.57 296.52 165.57 C 294.76 163.52 295.70 160.02 298.39 159.47 Z" fill="#000101" />
<path d="M 348.00 158.61 C 358.68 158.73 369.39 158.54 380.06 158.76 C 383.95 158.96 385.25 161.87 385.70 165.32 C 382.14 166.94 378.79 166.31 375.00 166.40 C 366.66 166.39 358.33 166.37 350.00 166.33 C 347.56 166.25 344.90 166.91 342.52 166.43 C 340.44 164.88 341.37 161.96 341.77 159.83 C 343.87 158.92 345.69 158.52 348.00 158.61 Z" fill="#000101" />
<path d="M 146.81 167.30 C 158.21 167.12 169.61 167.29 181.00 167.15 C 187.56 166.58 194.00 167.77 200.57 167.21 C 200.93 173.24 200.63 179.29 200.74 185.33 C 182.74 185.45 164.75 185.26 146.75 185.29 C 146.74 179.29 146.74 173.30 146.81 167.30 Z" fill="#f2cb93" />
<path d="M 120.45 192.40 C 128.93 192.33 137.42 192.34 145.90 192.57 C 145.53 248.38 146.03 304.19 145.75 360.00 C 145.56 365.37 147.61 370.11 150.53 374.49 C 154.05 379.59 157.61 384.63 161.72 389.28 C 165.36 393.49 168.02 397.72 173.79 399.16 C 180.60 400.54 188.03 398.83 194.88 400.27 C 200.14 401.52 204.62 405.34 205.11 410.98 C 205.79 415.04 206.76 419.92 211.96 419.71 C 268.76 419.82 325.45 419.46 382.22 419.38 C 383.83 414.90 383.25 410.64 383.32 406.00 C 383.37 388.58 383.39 371.36 383.42 353.96 C 383.27 350.06 385.67 346.62 389.04 344.85 C 390.89 344.13 393.17 344.42 395.14 344.34 C 396.52 345.68 397.93 346.99 399.34 348.30 C 399.36 354.64 399.29 360.98 399.36 367.31 C 401.99 367.57 404.63 367.74 407.27 367.83 C 406.51 370.94 406.55 373.43 407.08 376.56 C 403.78 376.44 402.21 377.07 399.61 378.93 C 399.55 399.52 399.37 420.12 399.34 440.72 C 306.44 440.76 213.55 440.80 120.65 440.38 C 120.64 419.91 120.62 399.44 120.49 378.97 C 120.23 316.80 120.49 254.58 120.45 192.40 Z" fill="#b5bed6" />
<path d="M 145.90 192.57 C 165.92 192.85 185.99 192.48 206.00 193.18 C 227.67 193.24 249.33 193.23 271.00 193.25 C 274.68 193.17 278.31 192.65 282.00 192.79 C 321.19 192.76 360.39 192.70 399.58 192.69 C 399.77 244.56 399.15 296.43 399.34 348.30 C 397.93 346.99 396.52 345.68 395.14 344.34 C 393.17 344.42 390.89 344.13 389.04 344.85 C 385.67 346.62 383.27 350.06 383.42 353.96 C 383.39 371.36 383.37 388.58 383.32 406.00 C 383.25 410.64 383.83 414.90 382.22 419.38 C 325.45 419.46 268.76 419.82 211.96 419.71 C 206.76 419.92 205.79 415.04 205.11 410.98 C 204.62 405.34 200.14 401.52 194.88 400.27 C 188.03 398.83 180.60 400.54 173.79 399.16 C 168.02 397.72 165.36 393.49 161.72 389.28 C 157.61 384.63 154.05 379.59 150.53 374.49 C 147.61 370.11 145.56 365.37 145.75 360.00 C 146.03 304.19 145.53 248.38 145.90 192.57 Z" fill="#f1f4fb" />
<path d="M 267.74 222.86 C 273.82 224.70 279.99 225.56 285.83 228.18 C 304.91 235.58 320.42 249.98 330.34 267.75 C 333.57 273.34 335.42 279.20 337.87 285.25 C 341.39 285.40 344.57 285.31 347.65 287.31 C 354.94 291.85 357.84 300.79 357.76 309.00 C 358.07 315.29 356.28 321.46 352.34 326.41 C 348.81 330.76 344.29 334.11 338.41 333.76 C 337.17 336.19 336.22 338.72 335.30 341.27 C 327.99 360.76 313.47 377.27 295.21 387.21 C 285.41 392.75 274.18 395.93 263.03 397.27 C 248.84 398.28 234.64 396.40 221.22 391.66 C 191.57 379.65 168.46 350.27 166.40 318.00 C 165.93 307.72 166.46 296.98 169.14 287.01 C 172.23 277.58 175.65 268.51 181.27 260.26 C 188.44 248.59 199.72 239.27 211.46 232.46 C 228.32 223.53 248.86 219.26 267.74 222.86 Z" fill="#000101" />
<path d="M 246.01 229.70 C 260.92 227.87 276.25 231.82 289.55 238.47 C 299.33 243.31 307.30 250.39 314.43 258.56 C 318.37 263.29 322.32 268.50 324.83 274.16 C 326.52 278.01 328.54 281.67 330.69 285.28 C 323.11 285.32 315.53 285.29 307.95 285.27 C 299.60 262.90 275.65 248.14 252.00 249.30 C 240.04 248.85 227.87 253.42 218.14 260.17 C 206.33 269.35 197.42 282.29 194.40 297.05 C 190.90 315.32 194.53 334.88 206.75 349.24 C 222.96 368.26 250.72 375.82 274.25 367.22 C 280.30 365.22 284.96 361.63 290.23 358.20 C 298.31 351.83 305.15 343.36 308.81 333.68 C 315.96 333.67 323.11 333.62 330.26 333.68 C 326.07 343.91 321.38 353.64 314.09 362.07 C 301.50 377.09 283.32 386.58 264.00 389.34 C 258.39 389.94 252.69 389.84 247.06 389.67 C 233.12 388.56 219.77 383.59 208.20 375.80 C 193.13 365.14 181.80 349.51 176.55 331.80 C 173.27 319.06 172.04 305.89 175.51 293.04 C 178.96 278.33 185.92 264.36 196.53 253.51 C 201.89 248.65 207.04 243.92 213.47 240.48 C 223.32 234.57 234.65 231.09 246.01 229.70 Z" fill="#8489b2" />
<path d="M 290.72 272.28 C 294.27 276.15 297.64 279.68 298.62 285.06 C 296.61 285.28 294.57 285.45 292.57 285.78 C 289.15 279.86 284.49 274.78 278.34 271.64 C 269.65 267.00 258.88 266.21 249.62 269.62 C 241.69 272.38 234.44 277.70 229.37 284.41 C 223.98 291.83 221.02 300.84 220.76 310.00 C 221.33 317.52 223.47 325.11 227.44 331.56 C 232.61 340.21 241.34 347.43 251.23 349.78 C 261.35 351.98 271.60 352.15 280.83 346.87 C 286.88 343.72 290.99 338.66 294.47 332.94 C 296.30 333.28 298.15 333.53 300.00 333.80 C 297.78 340.08 293.48 345.16 288.73 349.71 C 279.73 357.61 267.97 362.50 256.00 363.18 C 238.25 364.24 220.47 355.18 210.35 340.65 C 204.73 333.04 202.36 324.26 200.88 315.05 C 199.54 301.71 203.50 288.19 211.42 277.42 C 217.68 268.68 226.81 262.57 236.89 259.05 C 255.43 252.89 277.13 258.26 290.72 272.28 Z" fill="#8489b2" />
<path d="M 278.34 271.64 C 284.49 274.78 289.15 279.86 292.57 285.78 C 285.90 288.18 280.54 293.93 279.36 301.01 C 278.19 307.67 278.31 315.33 281.29 321.54 C 283.64 326.96 288.52 331.77 294.47 332.94 C 290.99 338.66 286.88 343.72 280.83 346.87 C 271.60 352.15 261.35 351.98 251.23 349.78 C 241.34 347.43 232.61 340.21 227.44 331.56 C 223.47 325.11 221.33 317.52 220.76 310.00 C 221.02 300.84 223.98 291.83 229.37 284.41 C 234.44 277.70 241.69 272.38 249.62 269.62 C 258.88 266.21 269.65 267.00 278.34 271.64 Z" fill="#b5bed6" />
<path d="M 298.98 292.71 C 309.32 292.59 319.66 292.63 330.00 292.56 C 334.55 292.68 340.57 291.69 344.38 294.63 C 349.70 298.95 350.76 305.54 350.31 312.05 C 349.21 318.99 344.59 325.75 337.03 326.23 C 324.68 326.35 312.30 326.30 299.94 326.27 C 292.94 325.99 287.50 320.69 286.56 313.83 C 286.12 308.55 285.66 302.56 289.11 298.12 C 291.45 294.52 294.69 292.81 298.98 292.71 Z" fill="#8489b2" />
</svg>