<?xml version="1.0" encoding="UTF-8" standalone="no"?>
<!DOCTYPE svg PUBLIC "-//W3C//DTD SVG 1.1//EN" "http://www.w3.org/Graphics/SVG/1.1/DTD/svg11.dtd">
<svg xmlns="http://www.w3.org/2000/svg" version="1.1" viewBox="0 0 512 512" width="512.0pt" height="512.0pt">
<path d="M 0.00 0.00 L 512.00 0.00 L 512.00 512.00 L 0.00 512.00 L 0.00 0.00 Z" fill="#fdfdfd" />
<path d="M 320.01 57.07 C 339.06 64.98 356.43 76.33 370.60 91.39 C 384.90 106.17 395.35 124.11 402.55 143.30 C 406.26 154.51 408.01 166.23 408.50 178.00 C 408.09 194.42 403.78 210.56 396.08 225.06 C 386.21 242.00 372.25 255.83 357.14 268.13 C 344.88 278.69 331.64 287.91 319.14 298.14 C 317.30 299.79 314.78 301.55 313.77 303.86 C 313.28 311.21 313.77 318.65 313.48 326.01 C 313.36 328.23 312.43 330.30 310.52 331.52 C 308.71 332.81 306.13 332.61 304.00 332.69 C 295.81 332.62 287.62 332.78 279.43 332.65 C 267.96 332.60 256.48 332.71 245.00 332.67 C 233.99 332.51 222.93 332.26 211.92 332.55 C 209.99 330.60 207.29 329.06 207.30 325.99 C 207.08 315.99 207.15 305.97 207.28 295.97 C 207.32 289.35 209.08 283.26 211.01 276.98 C 214.30 266.24 221.70 256.42 229.26 248.27 C 236.39 240.15 245.29 233.75 253.17 226.17 C 260.92 219.58 268.81 213.16 276.49 206.49 C 282.55 201.55 288.58 196.64 294.14 191.13 C 297.86 188.01 300.53 183.95 301.62 179.20 C 303.04 170.64 299.92 162.69 295.42 155.57 C 290.73 148.96 284.24 142.46 276.54 139.55 C 263.90 134.36 248.52 135.69 236.91 142.85 C 230.39 147.49 224.34 153.69 221.06 161.09 C 217.88 167.96 216.41 175.44 216.39 183.00 C 216.43 186.73 215.65 190.22 212.95 192.94 C 210.18 196.00 205.82 195.96 202.01 196.20 C 173.99 196.19 146.02 196.16 118.00 196.23 C 114.61 196.25 111.42 195.48 108.92 193.08 C 106.00 190.60 105.53 186.60 105.94 183.01 C 106.53 178.20 107.46 173.42 108.24 168.64 C 114.89 136.00 132.85 106.66 157.38 84.36 C 170.21 72.95 185.09 63.49 201.07 57.18 C 238.98 42.17 282.03 42.46 320.01 57.07 Z" fill="#645667" />
<path d="M 246.98 65.59 C 260.52 64.78 274.74 64.79 288.03 67.74 C 292.77 68.74 297.31 69.37 301.85 71.16 C 305.01 72.40 308.20 73.54 311.40 74.70 C 312.69 76.79 314.08 78.47 315.96 80.06 C 327.77 90.91 339.34 101.27 348.13 114.90 C 357.33 128.33 364.41 143.79 367.52 159.82 C 369.77 170.65 369.46 182.41 366.98 193.17 C 364.97 202.18 360.22 209.57 355.17 217.14 C 350.00 224.18 343.91 230.61 337.22 236.21 C 331.35 241.72 325.04 246.68 318.82 251.78 C 311.42 257.03 304.32 262.66 297.10 268.13 C 290.57 273.10 284.55 279.57 281.03 287.03 C 277.39 295.28 277.25 304.43 278.24 313.24 C 275.78 313.46 273.33 313.71 270.88 313.85 C 256.01 313.97 241.15 313.87 226.28 313.70 C 226.31 308.81 226.18 303.92 226.28 299.04 C 226.29 288.22 230.29 277.30 236.54 268.55 C 240.92 262.10 246.39 257.43 251.96 251.94 C 257.30 247.28 262.72 242.71 268.12 238.13 C 280.93 227.31 294.52 217.18 306.85 205.82 C 310.67 201.73 314.34 197.91 316.98 192.97 C 321.39 185.56 322.56 176.43 320.91 168.02 C 319.40 158.20 314.97 149.71 309.34 141.66 C 303.66 135.00 298.06 128.82 290.09 124.87 C 282.90 120.44 275.19 118.25 266.79 117.50 C 264.20 117.18 261.62 117.05 259.01 116.93 C 258.94 112.97 258.89 109.01 258.81 105.06 C 245.26 104.24 231.63 106.57 219.29 112.27 C 212.90 114.86 207.09 118.34 202.00 123.00 C 185.78 136.89 174.65 156.32 171.80 177.57 C 156.40 177.59 140.96 177.87 125.57 177.45 C 129.68 156.06 139.22 135.60 152.11 118.09 C 163.45 102.55 178.26 90.37 194.96 80.96 C 211.11 72.36 228.81 67.37 246.98 65.59 Z" fill="#fdfdfd" />
<path d="M 311.40 74.70 C 312.36 75.05 313.31 75.40 314.27 75.76 C 325.15 80.09 335.35 86.26 344.69 93.29 C 351.54 99.03 357.83 105.60 363.54 112.47 C 376.79 129.18 386.21 148.63 388.50 170.01 C 390.14 181.95 388.10 194.53 383.73 205.72 C 378.93 218.23 371.02 228.27 361.90 237.90 C 343.41 256.26 323.14 270.73 302.48 286.45 C 299.04 289.09 296.36 292.76 294.77 296.78 C 293.41 302.03 293.74 308.03 293.75 313.43 C 286.12 313.48 278.50 313.77 270.88 313.85 C 273.33 313.71 275.78 313.46 278.24 313.24 C 277.25 304.43 277.39 295.28 281.03 287.03 C 284.55 279.57 290.57 273.10 297.10 268.13 C 304.32 262.66 311.42 257.03 318.82 251.78 C 325.04 246.68 331.35 241.72 337.22 236.21 C 343.91 230.61 350.00 224.18 355.17 217.14 C 360.22 209.57 364.97 202.18 366.98 193.17 C 369.46 182.41 369.77 170.65 367.52 159.82 C 364.41 143.79 357.33 128.33 348.13 114.90 C 339.34 101.27 327.77 90.91 315.96 80.06 C 314.08 78.47 312.69 76.79 311.40 74.70 Z" fill="#d0d4d9" />
<path d="M 258.81 105.06 C 258.89 109.01 258.94 112.97 259.01 116.93 C 261.62 117.05 264.20 117.18 266.79 117.50 C 259.44 117.30 252.22 117.42 245.02 119.13 C 236.55 121.24 228.31 125.01 221.39 130.36 C 210.21 138.94 203.19 151.12 199.35 164.52 C 198.19 168.78 197.61 173.19 196.62 177.50 C 188.35 177.53 180.07 177.43 171.80 177.57 C 174.65 156.32 185.78 136.89 202.00 123.00 C 207.09 118.34 212.90 114.86 219.29 112.27 C 231.63 106.57 245.26 104.24 258.81 105.06 Z" fill="#d0d4d9" />
<path d="M 276.54 139.55 C 284.24 142.46 290.73 148.96 295.42 155.57 C 299.92 162.69 303.04 170.64 301.62 179.20 C 301.48 177.66 301.32 176.12 301.13 174.59 C 295.41 180.88 289.18 186.25 282.42 191.39 C 268.58 203.24 254.46 214.73 240.81 226.81 C 234.54 231.88 229.19 237.80 223.55 243.54 C 213.93 253.84 205.80 264.56 202.48 278.55 C 200.87 286.54 199.40 294.85 199.54 303.00 C 199.58 310.33 199.14 317.72 199.55 325.04 C 200.22 331.16 206.40 333.73 211.92 332.55 C 222.93 332.26 233.99 332.51 245.00 332.67 C 248.21 337.01 252.63 338.52 257.27 340.80 C 260.63 342.31 263.80 344.14 267.06 345.85 C 256.83 345.42 246.72 346.31 237.19 350.29 C 223.10 355.90 211.59 368.41 207.07 382.86 C 205.04 390.92 203.91 399.76 205.64 407.97 C 206.54 413.05 208.36 418.01 210.54 422.67 C 199.49 422.97 188.89 420.95 178.15 418.62 C 158.25 413.37 139.45 405.49 122.84 393.19 C 111.96 384.70 101.33 374.94 93.32 363.65 C 88.88 357.76 85.61 351.32 82.15 344.83 C 76.75 334.68 73.86 323.04 71.18 311.92 C 66.82 289.19 65.68 265.05 70.46 242.30 C 73.82 220.85 82.35 199.83 95.52 182.52 C 99.60 177.85 103.31 172.43 108.24 168.64 C 107.46 173.42 106.53 178.20 105.94 183.01 C 105.53 186.60 106.00 190.60 108.92 193.08 C 111.42 195.48 114.61 196.25 118.00 196.23 C 146.02 196.16 173.99 196.19 202.01 196.20 C 205.82 195.96 210.18 196.00 212.95 192.94 C 215.65 190.22 216.43 186.73 216.39 183.00 C 216.41 175.44 217.88 167.96 221.06 161.09 C 224.34 153.69 230.39 147.49 236.91 142.85 C 248.52 135.69 263.90 134.36 276.54 139.55 Z" fill="#d0d4d9" />
<path d="M 402.55 143.30 C 403.49 143.76 404.43 144.23 405.36 144.72 C 411.26 148.17 416.59 152.77 421.62 157.38 C 430.40 165.85 438.94 175.20 445.52 185.51 C 449.83 192.88 454.37 200.68 457.29 208.71 C 458.91 213.74 460.83 218.71 462.14 223.82 C 465.11 235.27 466.48 247.19 466.96 258.99 C 467.56 266.66 467.51 274.33 466.83 281.99 C 466.06 303.88 459.97 325.49 449.91 344.90 C 446.40 350.92 442.74 356.96 438.57 362.56 C 425.92 380.04 408.17 394.10 389.13 404.06 C 365.38 416.11 338.21 423.59 311.49 423.17 C 314.26 418.04 316.47 412.31 317.34 406.53 C 318.16 398.01 317.97 388.52 314.69 380.48 C 309.17 366.58 297.85 355.58 284.07 349.90 C 283.20 343.95 280.43 338.59 279.43 332.65 C 287.62 332.78 295.81 332.62 304.00 332.69 C 306.13 332.61 308.71 332.81 310.52 331.52 C 312.43 330.30 313.36 328.23 313.48 326.01 C 313.77 318.65 313.28 311.21 313.77 303.86 C 314.78 301.55 317.30 299.79 319.14 298.14 C 331.64 287.91 344.88 278.69 357.14 268.13 C 372.25 255.83 386.21 242.00 396.08 225.06 C 403.78 210.56 408.09 194.42 408.50 178.00 C 408.01 166.23 406.26 154.51 402.55 143.30 Z" fill="#f7bd8a" />
<path d="M 301.13 174.59 C 301.32 176.12 301.48 177.66 301.62 179.20 C 300.53 183.95 297.86 188.01 294.14 191.13 C 288.58 196.64 282.55 201.55 276.49 206.49 C 268.81 213.16 260.92 219.58 253.17 226.17 C 245.29 233.75 236.39 240.15 229.26 248.27 C 221.70 256.42 214.30 266.24 211.01 276.98 C 209.08 283.26 207.32 289.35 207.28 295.97 C 207.15 305.97 207.08 315.99 207.30 325.99 C 207.29 329.06 209.99 330.60 211.92 332.55 C 206.40 333.73 200.22 331.16 199.55 325.04 C 199.14 317.72 199.58 310.33 199.54 303.00 C 199.40 294.85 200.87 286.54 202.48 278.55 C 205.80 264.56 213.93 253.84 223.55 243.54 C 229.19 237.80 234.54 231.88 240.81 226.81 C 254.46 214.73 268.58 203.24 282.42 191.39 C 289.18 186.25 295.41 180.88 301.13 174.59 Z" fill="#fdfdfd" />
<path d="M 245.00 332.67 C 256.48 332.71 267.96 332.60 279.43 332.65 C 280.43 338.59 283.20 343.95 284.07 349.90 C 278.57 347.78 272.86 346.75 267.06 345.85 C 263.80 344.14 260.63 342.31 257.27 340.80 C 252.63 338.52 248.21 337.01 245.00 332.67 Z" fill="#fdfdfd" />
<path d="M 267.06 345.85 C 272.86 346.75 278.57 347.78 284.07 349.90 C 297.85 355.58 309.17 366.58 314.69 380.48 C 317.97 388.52 318.16 398.01 317.34 406.53 C 316.47 412.31 314.26 418.04 311.49 423.17 C 304.69 435.35 292.88 444.28 279.78 448.74 C 264.87 453.44 247.88 452.12 233.90 445.10 C 223.84 440.24 215.98 432.38 210.54 422.67 C 208.36 418.01 206.54 413.05 205.64 407.97 C 203.91 399.76 205.04 390.92 207.07 382.86 C 211.59 368.41 223.10 355.90 237.19 350.29 C 246.72 346.31 256.83 345.42 267.06 345.85 Z" fill="#645667" />
<path d="M 258.38 365.51 C 262.75 368.99 267.07 372.03 270.23 376.76 C 276.65 386.44 277.85 398.90 275.07 410.02 C 273.12 418.82 268.69 426.13 261.90 432.04 C 249.89 432.42 237.48 427.63 230.41 417.55 C 220.56 404.36 223.06 383.32 236.06 373.09 C 242.29 367.93 250.32 365.34 258.38 365.51 Z" fill="#fdfdfd" />
<path d="M 258.38 365.51 C 262.34 365.45 266.09 365.20 270.02 365.93 C 279.61 367.62 288.36 373.16 293.54 381.47 C 297.13 387.71 299.05 394.76 298.09 401.98 C 296.95 409.80 293.57 417.29 287.54 422.55 C 280.36 429.20 271.43 431.40 261.90 432.04 C 268.69 426.13 273.12 418.82 275.07 410.02 C 277.85 398.90 276.65 386.44 270.23 376.76 C 267.07 372.03 262.75 368.99 258.38 365.51 Z" fill="#d0d4d9" />
</svg>