<?xml version="1.0" encoding="UTF-8" standalone="no"?>
<!DOCTYPE svg PUBLIC "-//W3C//DTD SVG 1.1//EN" "http://www.w3.org/Graphics/SVG/1.1/DTD/svg11.dtd">
<svg xmlns="http://www.w3.org/2000/svg" version="1.1" viewBox="0 0 512 512" width="512.0pt" height="512.0pt">
<path d="M 0.00 0.00 L 512.00 0.00 L 512.00 512.00 L 0.00 512.00 L 0.00 0.00 Z" fill="#fdfdfd" />
<path d="M 280.95 161.81 C 291.11 161.24 300.93 161.70 311.00 162.45 C 315.68 162.93 320.38 162.19 323.61 166.28 C 323.23 167.61 322.85 168.93 322.46 170.26 C 314.22 171.71 306.86 178.50 300.79 183.93 C 325.66 208.81 350.61 233.64 375.62 258.38 C 381.84 264.50 388.32 270.33 394.41 276.59 C 397.55 279.88 401.76 283.25 403.50 287.51 C 404.41 289.43 403.50 292.07 403.26 294.12 C 405.67 295.69 408.55 297.34 410.27 299.68 C 413.31 303.91 414.29 308.86 414.28 314.00 C 414.25 322.33 414.31 330.67 414.31 339.00 C 414.19 343.65 413.75 348.85 410.41 352.43 C 407.06 356.60 402.37 358.60 397.05 358.66 C 314.31 358.91 231.76 358.50 149.00 358.81 C 140.63 358.59 132.36 359.59 123.99 358.90 C 117.34 359.17 110.91 359.70 104.34 358.22 C 104.07 356.25 103.71 354.22 103.81 352.25 L 104.86 350.39 C 107.89 349.94 110.94 349.79 114.00 349.76 C 158.91 349.58 203.86 349.85 248.77 349.59 C 293.53 349.66 338.25 349.63 383.00 349.67 C 387.85 349.60 392.78 349.99 397.60 349.48 C 400.95 349.18 403.64 345.92 404.48 342.86 C 405.77 337.52 405.18 331.49 405.28 326.00 C 405.15 320.69 405.69 315.26 405.04 309.99 C 404.76 306.23 401.02 304.23 398.53 301.89 C 395.58 305.81 392.32 311.62 387.04 312.47 C 381.48 313.24 377.14 309.08 373.41 305.59 C 362.41 294.58 350.86 284.15 339.94 273.04 C 337.23 270.30 334.47 267.59 330.67 266.45 C 324.29 264.40 316.57 267.38 311.88 271.85 C 305.58 277.89 300.02 284.70 293.91 290.92 C 291.79 292.99 289.78 294.48 286.68 293.37 C 285.01 292.03 283.67 289.18 285.27 287.31 C 287.48 283.70 290.73 280.69 293.45 277.46 C 298.39 272.02 303.32 265.53 309.43 261.41 C 313.59 258.53 318.09 257.85 322.93 256.89 C 318.55 251.81 313.69 247.23 309.06 242.39 C 304.42 247.63 299.62 252.70 294.51 257.49 C 292.53 259.34 290.24 260.17 287.85 261.40 C 286.86 258.55 283.93 256.28 286.39 253.38 C 291.31 247.07 297.58 242.00 302.01 235.21 C 300.37 233.85 298.60 231.16 296.46 230.65 C 293.63 231.62 291.27 233.98 288.35 231.66 C 285.28 229.44 288.24 223.84 286.97 221.14 C 283.22 216.88 278.73 212.61 274.24 209.13 C 270.61 211.94 267.27 215.19 263.83 218.25 C 266.71 220.62 269.98 222.77 272.47 225.56 C 274.34 227.37 274.09 230.51 272.26 232.25 C 270.55 232.65 268.72 232.69 266.97 232.81 C 263.91 229.77 260.71 226.84 257.30 224.18 C 254.73 226.29 252.32 228.58 249.92 230.88 C 255.32 236.49 260.93 241.86 266.10 247.68 C 268.20 250.13 271.63 252.82 272.38 256.01 C 272.80 258.96 268.59 260.11 266.61 261.25 C 258.83 253.46 251.39 245.36 243.91 237.29 C 235.94 244.33 228.88 252.25 220.27 258.63 C 227.17 256.88 233.64 255.61 240.53 258.32 C 251.37 262.24 257.58 273.42 265.40 281.44 C 267.53 283.70 269.73 285.89 271.87 288.14 C 270.94 289.87 270.07 291.65 269.02 293.30 C 267.02 293.84 265.28 293.29 263.34 292.82 C 257.43 286.35 251.98 279.42 245.96 273.04 C 242.30 269.02 237.57 266.27 232.01 266.28 C 225.59 265.80 219.67 270.04 215.01 273.99 C 207.59 280.95 200.56 288.27 193.71 295.80 C 191.04 293.50 188.42 291.15 185.82 288.77 C 178.65 292.28 171.46 295.67 164.50 299.60 C 168.63 305.30 174.41 310.05 177.83 316.17 C 179.66 319.43 175.93 320.98 174.14 323.06 C 171.61 321.55 169.18 320.05 167.27 317.76 C 163.38 313.16 159.71 308.41 156.08 303.61 C 147.04 307.44 137.73 312.02 128.03 313.82 C 124.48 314.60 121.43 313.57 118.03 312.69 C 114.44 316.88 110.93 320.87 106.04 323.61 C 105.55 322.95 105.07 322.28 104.58 321.62 C 103.28 319.58 101.59 317.67 103.40 315.30 C 107.78 309.43 112.70 303.90 117.41 298.29 C 119.34 295.86 121.21 293.72 121.50 290.47 C 123.08 279.08 123.63 267.51 125.04 256.08 C 125.89 248.63 125.17 239.69 128.69 232.96 C 135.22 236.89 141.31 241.53 147.83 245.49 C 157.80 230.95 169.86 217.74 182.48 205.46 C 191.61 197.14 201.52 189.55 212.21 183.34 C 218.72 179.90 225.46 176.25 232.24 173.37 C 247.76 167.28 264.35 163.33 280.95 161.81 Z" fill="#343740" />
<path d="M 282.95 170.69 C 288.98 170.34 295.04 170.29 301.08 170.16 C 297.05 174.88 292.85 179.11 288.15 183.15 C 271.13 198.79 254.53 214.88 237.52 230.52 C 230.86 236.85 224.54 243.54 217.80 249.79 C 208.49 258.39 199.57 267.44 190.61 276.42 C 185.18 273.62 180.66 270.54 176.07 266.51 C 181.59 261.57 186.92 256.41 192.12 251.13 C 201.62 241.30 211.67 231.98 221.52 222.52 C 234.42 209.73 247.80 197.46 261.12 185.12 C 265.30 181.31 269.22 177.15 273.64 173.62 C 276.36 171.38 279.55 170.95 282.95 170.69 Z" fill="#897d75" />
<path d="M 258.97 174.18 C 247.10 185.91 234.60 197.02 222.51 208.51 C 202.32 227.97 182.15 247.44 162.63 267.58 C 168.15 272.25 174.01 276.49 179.52 281.18 C 170.25 285.52 161.52 290.91 152.22 295.18 C 144.96 298.11 138.15 301.54 130.42 303.11 C 130.34 293.23 131.75 283.81 132.61 273.97 C 133.40 265.22 134.37 256.47 134.73 247.70 C 139.65 251.66 144.39 255.82 149.36 259.72 C 153.29 254.13 156.80 248.40 161.07 243.05 C 166.33 236.38 171.87 229.87 177.62 223.63 C 190.76 209.91 205.77 197.65 222.39 188.39 C 229.27 184.30 236.50 181.92 243.85 178.90 C 248.76 176.89 253.83 175.44 258.97 174.18 Z" fill="#00acb2" />
<path d="M 293.24 190.14 C 297.78 193.28 301.38 197.84 305.43 201.58 C 318.57 214.77 331.88 227.79 345.12 240.88 C 357.92 254.09 371.38 266.60 384.54 279.44 C 387.96 282.87 392.31 286.08 394.82 290.24 C 393.21 295.23 389.19 300.50 385.11 303.77 C 380.81 301.05 377.30 296.87 373.56 293.43 C 365.00 284.99 356.30 276.70 347.79 268.22 C 329.65 251.03 312.17 233.18 294.32 215.69 C 289.86 211.09 285.44 206.47 280.63 202.24 C 284.91 198.34 288.59 193.58 293.24 190.14 Z" fill="#897d75" />
<path d="M 274.24 209.13 C 278.73 212.61 283.22 216.88 286.97 221.14 C 288.24 223.84 285.28 229.44 288.35 231.66 C 291.27 233.98 293.63 231.62 296.46 230.65 C 298.60 231.16 300.37 233.85 302.01 235.21 C 297.58 242.00 291.31 247.07 286.39 253.38 C 283.93 256.28 286.86 258.55 287.85 261.40 C 290.24 260.17 292.53 259.34 294.51 257.49 C 299.62 252.70 304.42 247.63 309.06 242.39 C 313.69 247.23 318.55 251.81 322.93 256.89 C 318.09 257.85 313.59 258.53 309.43 261.41 C 303.32 265.53 298.39 272.02 293.45 277.46 C 290.73 280.69 287.48 283.70 285.27 287.31 C 283.67 289.18 285.01 292.03 286.68 293.37 C 289.78 294.48 291.79 292.99 293.91 290.92 C 300.02 284.70 305.58 277.89 311.88 271.85 C 316.57 267.38 324.29 264.40 330.67 266.45 C 334.47 267.59 337.23 270.30 339.94 273.04 C 350.86 284.15 362.41 294.58 373.41 305.59 C 377.14 309.08 381.48 313.24 387.04 312.47 C 392.32 311.62 395.58 305.81 398.53 301.89 C 401.02 304.23 404.76 306.23 405.04 309.99 C 405.69 315.26 405.15 320.69 405.28 326.00 C 405.18 331.49 405.77 337.52 404.48 342.86 C 403.64 345.92 400.95 349.18 397.60 349.48 C 392.78 349.99 387.85 349.60 383.00 349.67 C 338.25 349.63 293.53 349.66 248.77 349.59 C 253.11 349.25 257.43 348.71 261.77 348.35 C 260.94 347.58 260.10 346.81 259.27 346.03 C 260.49 344.59 261.26 343.22 261.76 341.37 C 262.63 334.94 263.35 328.43 264.63 322.06 C 266.06 321.76 267.58 321.57 268.94 321.02 C 270.12 319.88 271.01 318.39 271.96 317.06 C 268.71 313.04 265.25 309.20 262.07 305.13 C 263.31 300.83 265.36 297.26 263.34 292.82 C 265.28 293.29 267.02 293.84 269.02 293.30 C 270.07 291.65 270.94 289.87 271.87 288.14 C 269.73 285.89 267.53 283.70 265.40 281.44 C 265.24 274.67 264.24 267.73 266.61 261.25 C 268.59 260.11 272.80 258.96 272.38 256.01 C 271.63 252.82 268.20 250.13 266.10 247.68 C 266.32 242.72 266.54 237.76 266.97 232.81 C 268.72 232.69 270.55 232.65 272.26 232.25 C 274.09 230.51 274.34 227.37 272.47 225.56 C 269.98 222.77 266.71 220.62 263.83 218.25 C 267.27 215.19 270.61 211.94 274.24 209.13 Z" fill="#c2b9b1" />
<path d="M 257.30 224.18 C 260.71 226.84 263.91 229.77 266.97 232.81 C 266.54 237.76 266.32 242.72 266.10 247.68 C 260.93 241.86 255.32 236.49 249.92 230.88 C 252.32 228.58 254.73 226.29 257.30 224.18 Z" fill="#d8d0ca" />
<path d="M 243.91 237.29 C 251.39 245.36 258.83 253.46 266.61 261.25 C 264.24 267.73 265.24 274.67 265.40 281.44 C 257.58 273.42 251.37 262.24 240.53 258.32 C 233.64 255.61 227.17 256.88 220.27 258.63 C 228.88 252.25 235.94 244.33 243.91 237.29 Z" fill="#d8d0ca" />
<path d="M 232.01 266.28 C 237.57 266.27 242.30 269.02 245.96 273.04 C 251.98 279.42 257.43 286.35 263.34 292.82 C 265.36 297.26 263.31 300.83 262.07 305.13 C 255.65 297.16 250.14 287.12 239.76 283.83 C 231.58 281.66 219.89 281.97 213.84 288.83 C 208.49 294.21 203.57 299.96 198.88 305.92 C 196.29 309.22 193.00 312.42 191.15 316.20 C 189.78 318.27 192.36 320.95 194.06 321.94 C 196.80 323.30 198.82 321.50 200.45 319.49 C 205.56 312.62 210.99 306.04 216.35 299.38 C 218.92 296.27 221.93 293.26 226.00 292.36 C 231.42 290.92 238.04 291.76 242.23 295.75 C 247.81 300.57 252.12 307.46 256.90 313.07 C 259.49 316.06 262.09 319.03 264.63 322.06 C 263.35 328.43 262.63 334.94 261.76 341.37 C 256.50 333.46 251.52 325.41 242.31 321.66 C 236.34 319.37 228.67 317.33 222.44 319.50 C 214.42 321.85 207.48 327.06 203.28 334.31 C 202.45 335.80 201.83 337.94 202.43 339.59 C 203.62 341.58 205.65 342.70 207.99 342.28 C 210.99 340.02 213.03 336.39 215.80 333.81 C 219.13 330.61 223.28 328.41 227.96 328.29 C 234.83 327.73 241.45 331.03 246.12 335.88 C 248.81 338.66 250.38 342.30 253.00 345.08 C 254.83 345.97 257.27 345.84 259.27 346.03 C 260.10 346.81 260.94 347.58 261.77 348.35 C 257.43 348.71 253.11 349.25 248.77 349.59 C 203.86 349.85 158.91 349.58 114.00 349.76 C 110.94 349.79 107.89 349.94 104.86 350.39 L 103.81 352.25 C 104.69 342.03 104.37 331.87 104.58 321.62 C 105.07 322.28 105.55 322.95 106.04 323.61 C 110.93 320.87 114.44 316.88 118.03 312.69 C 121.43 313.57 124.48 314.60 128.03 313.82 C 137.73 312.02 147.04 307.44 156.08 303.61 C 159.71 308.41 163.38 313.16 167.27 317.76 C 169.18 320.05 171.61 321.55 174.14 323.06 C 175.93 320.98 179.66 319.43 177.83 316.17 C 174.41 310.05 168.63 305.30 164.50 299.60 C 171.46 295.67 178.65 292.28 185.82 288.77 C 188.42 291.15 191.04 293.50 193.71 295.80 C 200.56 288.27 207.59 280.95 215.01 273.99 C 219.67 270.04 225.59 265.80 232.01 266.28 Z" fill="#d8d0ca" />
<path d="M 239.76 283.83 C 250.14 287.12 255.65 297.16 262.07 305.13 C 265.25 309.20 268.71 313.04 271.96 317.06 C 271.01 318.39 270.12 319.88 268.94 321.02 C 267.58 321.57 266.06 321.76 264.63 322.06 C 262.09 319.03 259.49 316.06 256.90 313.07 C 252.12 307.46 247.81 300.57 242.23 295.75 C 238.04 291.76 231.42 290.92 226.00 292.36 C 221.93 293.26 218.92 296.27 216.35 299.38 C 210.99 306.04 205.56 312.62 200.45 319.49 C 198.82 321.50 196.80 323.30 194.06 321.94 C 192.36 320.95 189.78 318.27 191.15 316.20 C 193.00 312.42 196.29 309.22 198.88 305.92 C 203.57 299.96 208.49 294.21 213.84 288.83 C 219.89 281.97 231.58 281.66 239.76 283.83 Z" fill="#343740" />
<path d="M 327.00 282.51 C 332.99 282.62 338.29 285.41 342.65 289.36 C 349.45 295.62 355.32 303.72 361.34 310.68 C 362.83 312.45 364.54 314.31 365.52 316.42 C 366.60 318.92 364.71 321.79 361.96 321.73 C 359.52 321.85 357.92 320.29 356.25 318.75 C 350.15 312.47 345.17 305.10 339.38 298.60 C 335.25 293.94 329.26 291.16 322.98 291.73 C 316.43 292.27 312.09 296.27 308.15 301.13 C 304.19 306.17 299.77 310.83 295.99 316.00 C 293.94 318.63 292.25 321.28 289.03 322.57 C 286.26 321.89 283.97 320.14 284.28 317.02 C 284.86 314.37 287.35 312.06 288.99 309.97 C 295.92 302.20 300.43 294.12 308.44 287.40 C 313.51 283.18 320.65 282.39 327.00 282.51 Z" fill="#343740" />
<path d="M 147.50 320.53 C 153.49 322.82 159.02 325.85 162.78 331.22 C 165.54 335.18 168.40 339.45 169.78 344.11 C 168.14 346.65 162.96 345.74 160.39 345.42 C 157.52 341.52 156.04 337.07 152.23 333.79 C 148.18 329.81 143.28 328.82 137.98 327.52 C 133.76 328.69 129.77 329.61 126.12 332.18 C 122.56 334.53 120.62 337.87 117.70 340.75 C 114.42 342.97 109.01 341.20 110.50 336.46 C 115.89 322.77 133.88 315.57 147.50 320.53 Z" fill="#343740" />
<path d="M 222.44 319.50 C 228.67 317.33 236.34 319.37 242.31 321.66 C 251.52 325.41 256.50 333.46 261.76 341.37 C 261.26 343.22 260.49 344.59 259.27 346.03 C 257.27 345.84 254.83 345.97 253.00 345.08 C 250.38 342.30 248.81 338.66 246.12 335.88 C 241.45 331.03 234.83 327.73 227.96 328.29 C 223.28 328.41 219.13 330.61 215.80 333.81 C 213.03 336.39 210.99 340.02 207.99 342.28 C 205.65 342.70 203.62 341.58 202.43 339.59 C 201.83 337.94 202.45 335.80 203.28 334.31 C 207.48 327.06 214.42 321.85 222.44 319.50 Z" fill="#343740" />
<path d="M 321.97 318.87 C 330.98 318.34 340.37 321.80 346.64 328.35 C 349.45 331.21 352.26 334.22 354.41 337.62 C 355.62 339.47 356.39 342.20 355.37 344.27 C 354.03 345.41 352.35 346.21 350.84 347.10 C 348.31 344.88 346.06 342.53 344.29 339.66 C 341.37 334.96 337.13 331.20 332.03 329.04 C 328.77 327.72 325.45 326.87 321.95 327.81 C 315.50 329.45 311.00 333.92 306.79 338.80 C 305.19 340.42 303.02 343.20 300.45 342.55 C 296.96 341.58 296.44 337.04 298.32 334.39 C 303.83 326.28 311.92 319.83 321.97 318.87 Z" fill="#343740" />
</svg>